<svg width="24.000000" height="24.000000" viewBox="0 0 24 24" fill="none" xmlns="http://www.w3.org/2000/svg" xmlns:xlink="http://www.w3.org/1999/xlink">
	<desc>
			Created with Pixso.
	</desc>
	<defs>
		<clipPath id="clip41_375">
			<rect id="carbon:location" width="24.000000" height="24.000000" fill="white" fill-opacity="0"/>
		</clipPath>
	</defs>
	<rect id="carbon:location" width="24.000000" height="24.000000" fill="#FFFFFF" fill-opacity="0"/>
	<g clip-path="url(#clip41_375)">
		<path id="Vector" d="M12 13.5C11.2583 13.5 10.5332 13.2803 9.9165 12.8682C9.2998 12.4561 8.81934 11.8701 8.53564 11.1855C8.25146 10.5 8.17725 9.74609 8.32227 9.01855C8.4668 8.29102 8.82373 7.62305 9.34814 7.09863C9.87256 6.57422 10.541 6.2168 11.2686 6.07227C11.9956 5.92773 12.75 6.00195 13.4351 6.28516C14.1201 6.56934 14.7061 7.0498 15.1182 7.66699C15.5303 8.2832 15.75 9.00879 15.75 9.75C15.749 10.7441 15.3535 11.6973 14.6504 12.4004C13.9473 13.1035 12.9941 13.499 12 13.5ZM12 7.5C11.5552 7.5 11.1201 7.63184 10.75 7.87891C10.3799 8.12598 10.0918 8.47754 9.92139 8.88867C9.75098 9.2998 9.70654 9.75293 9.79346 10.1885C9.87988 10.625 10.0942 11.0264 10.4092 11.3408C10.7236 11.6553 11.1245 11.8701 11.561 11.957C11.9976 12.0439 12.4497 11.999 12.8608 11.8291C13.272 11.6582 13.6235 11.3701 13.8706 11C14.1182 10.6299 14.25 10.1953 14.25 9.75C14.2495 9.15332 14.0122 8.58105 13.5903 8.16016C13.1685 7.73828 12.5967 7.50098 12 7.5Z" fill="#FFF9F4" fill-opacity="1.000000" fill-rule="nonzero"/>
		<path id="Vector" d="M12 22.5L5.67285 15.0381C5.58496 14.9258 5.49805 14.8135 5.41211 14.7002C4.33105 13.2764 3.74756 11.5371 3.75 9.75C3.75 7.56152 4.61914 5.46387 6.1665 3.91602C7.71338 2.36914 9.81201 1.5 12 1.5C14.188 1.5 16.2866 2.36914 17.8335 3.91602C19.3809 5.46387 20.25 7.56152 20.25 9.75C20.2524 11.5361 19.6689 13.2744 18.5889 14.6973L18.5879 14.7002C18.5879 14.7002 18.3628 14.9951 18.3291 15.0352L12 22.5ZM6.60889 13.7959C6.61035 13.7959 6.78467 14.0273 6.82422 14.0771L12 20.1807L17.1826 14.0684C17.2153 14.0273 17.3911 13.7949 17.3916 13.7939C18.2744 12.6309 18.752 11.21 18.75 9.75C18.75 7.95996 18.0391 6.24316 16.7729 4.97656C15.5073 3.71094 13.79 3 12 3C10.21 3 8.49268 3.71094 7.22705 4.97656C5.96094 6.24316 5.25 7.95996 5.25 9.75C5.24854 11.2109 5.72559 12.6328 6.60889 13.7959Z" fill="#FFF9F4" fill-opacity="1.000000" fill-rule="nonzero"/>
	</g>
</svg>
