<svg width="36.000000" height="36.000000" viewBox="0 0 36 36" fill="none" xmlns="http://www.w3.org/2000/svg" xmlns:xlink="http://www.w3.org/1999/xlink">
	<desc>
			Created with Pixso.
	</desc>
	<defs>
		<clipPath id="clip60_609">
			<rect id="ant-design:youtube-outlined" width="36.000000" height="36.000000" fill="white" fill-opacity="0"/>
		</clipPath>
	</defs>
	<rect id="ant-design:youtube-outlined" width="36.000000" height="36.000000" fill="#FFFFFF" fill-opacity="0"/>
	<g clip-path="url(#clip60_609)">
		<path id="Vector" d="M33.75 17.9023C33.75 17.8242 33.75 17.7363 33.7466 17.6348C33.7429 17.3496 33.7358 17.0303 33.729 16.6895C33.7007 15.708 33.6516 14.7305 33.5742 13.8096C33.4688 12.541 33.314 11.4824 33.103 10.6875C32.8806 9.8584 32.4441 9.10254 31.8376 8.49512C31.2312 7.88672 30.4761 7.44922 29.6472 7.22461C28.6523 6.95801 26.7046 6.79297 23.9624 6.69043C22.6582 6.6416 21.2625 6.60938 19.8667 6.5918C19.3782 6.58496 18.9246 6.58203 18.5168 6.57812L17.4832 6.57812C17.0754 6.58203 16.6218 6.58496 16.1333 6.5918C14.7375 6.60938 13.3418 6.6416 12.0376 6.69043C9.29541 6.7959 7.34424 6.96094 6.35278 7.22461C5.52368 7.44922 4.76807 7.88672 4.16162 8.49414C3.55518 9.10156 3.1189 9.8584 2.89697 10.6875C2.68237 11.4824 2.53125 12.541 2.42578 13.8096C2.34839 14.7305 2.29932 15.708 2.271 16.6895C2.2605 17.0303 2.25708 17.3496 2.25342 17.6348C2.25342 17.7363 2.25 17.8242 2.25 17.9023L2.25 18.0986C2.25 18.1758 2.25 18.2637 2.25342 18.3662C2.25708 18.6504 2.26416 18.9707 2.271 19.3115C2.29932 20.293 2.34839 21.2695 2.42578 22.1914C2.53125 23.46 2.68604 24.5186 2.89697 25.3125C3.34692 26.9971 4.6687 28.3262 6.35278 28.7754C7.34424 29.043 9.29541 29.208 12.0376 29.3105C13.3418 29.3594 14.7375 29.3906 16.1333 29.4082C16.6218 29.416 17.0754 29.4189 17.4832 29.4229L18.5168 29.4229C18.9246 29.4189 19.3782 29.416 19.8667 29.4082C21.2625 29.3906 22.6582 29.3594 23.9624 29.3105C26.7046 29.2051 28.6558 29.0391 29.6472 28.7754C31.3313 28.3262 32.6531 27 33.103 25.3125C33.3176 24.5186 33.4688 23.46 33.5742 22.1914C33.6516 21.2695 33.7007 20.293 33.729 19.3115C33.7395 18.9707 33.7429 18.6504 33.7466 18.3662C33.7466 18.2637 33.75 18.1758 33.75 18.0986L33.75 17.9023ZM31.2188 18.085C31.2188 18.1582 31.2188 18.2393 31.2153 18.334C31.2117 18.6084 31.2046 18.9111 31.1978 19.2383C31.1731 20.1729 31.1238 21.1084 31.05 21.9766C30.9551 23.1084 30.8215 24.0371 30.6562 24.6592C30.4382 25.4707 29.7983 26.1143 28.9897 26.3291C28.2515 26.5254 26.3918 26.6836 23.864 26.7793C22.5845 26.8281 21.2063 26.8594 19.8315 26.877C19.3501 26.8848 18.9036 26.8877 18.5027 26.8877L17.4973 26.8877L16.1685 26.877C14.7937 26.8594 13.4192 26.8281 12.136 26.7793C9.60815 26.6807 7.74487 26.5254 7.01025 26.3291C6.20166 26.1113 5.56177 25.4707 5.34375 24.6592C5.17847 24.0371 5.04492 23.1084 4.94995 21.9766C4.87622 21.1084 4.83057 20.1729 4.80225 19.2383C4.79175 18.9111 4.78833 18.6055 4.78467 18.334C4.78467 18.2393 4.78125 18.1553 4.78125 18.085L4.78125 17.916C4.78125 17.8418 4.78125 17.7617 4.78467 17.666C4.78833 17.3926 4.79541 17.0898 4.80225 16.7627C4.8269 15.8281 4.87622 14.8926 4.94995 14.0244C5.04492 12.8926 5.17847 11.9639 5.34375 11.3418C5.56177 10.5293 6.20166 9.88672 7.01025 9.67188C7.74854 9.47461 9.60815 9.31641 12.136 9.22168C13.4155 9.17285 14.7937 9.14062 16.1685 9.12305C16.6499 9.11621 17.0964 9.11328 17.4973 9.11328L18.5027 9.11328L19.8315 9.12305C21.2063 9.14062 22.5808 9.17285 23.864 9.22168C26.3918 9.32031 28.2551 9.47461 28.9897 9.67188C29.7983 9.88965 30.4382 10.5293 30.6562 11.3418C30.8215 11.9639 30.9551 12.8926 31.05 14.0244C31.1238 14.8926 31.1694 15.8281 31.1978 16.7627C31.2083 17.0898 31.2117 17.3955 31.2153 17.666C31.2153 17.7617 31.2188 17.8457 31.2188 17.916L31.2188 18.085ZM14.8711 22.7109L23.0273 17.9648L14.8711 13.2891L14.8711 22.7109Z" fill="#FFF9F4" fill-opacity="1.000000" fill-rule="nonzero"/>
	</g>
</svg>
