<svg width="44.459961" height="44.459961" viewBox="0 0 44.46 44.46" fill="none" xmlns="http://www.w3.org/2000/svg" xmlns:xlink="http://www.w3.org/1999/xlink">
	<desc>
			Created with Pixso.
	</desc>
	<defs>
		<clipPath id="clip2_85">
			<rect id="circum:gift" width="44.459999" height="44.459999" fill="white" fill-opacity="0"/>
		</clipPath>
	</defs>
	<rect id="circum:gift" width="44.459999" height="44.459999" fill="#FFFFFF" fill-opacity="0"/>
	<g clip-path="url(#clip2_85)">
		<path id="Vector" d="M36.0034 10.3145L31.5945 10.3145C31.7644 9.69043 31.7666 9.0332 31.6006 8.40918C31.4348 7.78418 31.1067 7.21484 30.6497 6.75781C29.9495 6.07129 29.0085 5.6875 28.0283 5.6875C27.0483 5.6875 26.1072 6.07129 25.407 6.75781L22.23 9.94238L19.0623 6.75781C18.7183 6.41309 18.3096 6.13965 17.8599 5.95312C17.4099 5.7666 16.928 5.6709 16.4409 5.6709C15.9541 5.6709 15.4719 5.7666 15.0222 5.95312C14.5725 6.13965 14.1638 6.41309 13.8198 6.75781C13.3628 7.21484 13.0347 7.78418 12.8687 8.40918C12.7029 9.0332 12.7048 9.69043 12.875 10.3145L8.45679 10.3145C7.71973 10.3145 7.01294 10.6074 6.49194 11.1279C5.9707 11.6494 5.67798 12.3564 5.67798 13.0928L5.67798 14.9453C5.67822 15.4961 5.84351 16.0332 6.1521 16.4893C6.46094 16.9453 6.89893 17.2979 7.41016 17.502L7.41016 34.1562C7.41357 35.3828 7.90259 36.5596 8.77026 37.4268C9.63818 38.2949 10.814 38.7842 12.0413 38.7871L32.4187 38.7871C33.6472 38.7871 34.8252 38.2988 35.6936 37.4307C36.562 36.5625 37.05 35.3848 37.05 34.1562L37.05 17.5205C37.5625 17.3115 38.0017 16.9561 38.3118 16.4971C38.6216 16.0391 38.7886 15.499 38.7915 14.9453L38.7915 13.0928C38.7915 12.7275 38.7192 12.3652 38.5791 12.0273C38.4387 11.6895 38.2334 11.3828 37.9744 11.125C37.7153 10.8672 37.4077 10.6621 37.0696 10.5234C36.7314 10.3838 36.3691 10.3135 36.0034 10.3145ZM15.1257 8.07129C15.4729 7.72559 15.9424 7.53223 16.4316 7.53223C16.9211 7.53223 17.3906 7.72559 17.7378 8.07129L19.9792 10.3145L14.8479 10.3145C14.6367 9.96289 14.5491 9.55176 14.5996 9.14453C14.6499 8.73828 14.8352 8.36035 15.1257 8.07129ZM20.3777 36.9346L12.0413 36.9346C11.3044 36.9346 10.5977 36.6416 10.0764 36.1211C9.55542 35.5996 9.26245 34.8926 9.26245 34.1562L9.26245 17.7246L20.3777 17.7246L20.3777 36.9346ZM20.3777 15.8721L8.45679 15.8721C8.21118 15.8721 7.97559 15.7744 7.80176 15.6006C7.62817 15.4268 7.53052 15.1914 7.53052 14.9453L7.53052 13.0928C7.53052 12.8477 7.62817 12.6123 7.80176 12.4385C7.97559 12.2646 8.21118 12.167 8.45679 12.167L20.3777 12.167L20.3777 15.8721ZM26.7317 8.07129C27.0503 7.75391 27.4731 7.56445 27.9216 7.53613C28.3701 7.50781 28.8135 7.64355 29.1692 7.91797C29.5249 8.19238 29.7688 8.58691 29.8555 9.02734C29.9421 9.46875 29.8655 9.92578 29.6401 10.3145L24.4902 10.3145L26.7317 8.07129ZM35.1975 34.1562C35.1975 34.8926 34.9048 35.5996 34.3838 36.1211C33.8625 36.6416 33.1558 36.9346 32.4187 36.9346L24.0825 36.9346L24.0825 17.7246L35.1975 17.7246L35.1975 34.1562ZM36.939 14.9453C36.939 15.1914 36.8413 15.4268 36.6677 15.6006C36.4939 15.7744 36.2583 15.8721 36.0127 15.8721L24.0825 15.8721L24.0825 12.167L36.0127 12.167C36.2583 12.167 36.4939 12.2646 36.6677 12.4385C36.8413 12.6123 36.939 12.8477 36.939 13.0928L36.939 14.9453Z" fill="#704174" fill-opacity="1.000000" fill-rule="evenodd"/>
	</g>
</svg>
