<svg width="21.500000" height="21.500000" viewBox="0 0 21.5 21.5" fill="none" xmlns="http://www.w3.org/2000/svg" xmlns:xlink="http://www.w3.org/1999/xlink">
	<desc>
			Created with Pixso.
	</desc>
	<defs/>
	<path id="Vector" d="M3.75 13.334L4.5 13.334C4.5 13.1885 4.45752 13.0459 4.37744 12.9238C4.29736 12.8018 4.18359 12.7051 4.0498 12.6475L3.75 13.334ZM17.75 13.334L17.4502 12.6475C17.3164 12.7051 17.2026 12.8018 17.1226 12.9238C17.0425 13.0459 17 13.1885 17 13.334L17.75 13.334ZM14.5 5.75C14.5 5.94922 14.5791 6.13965 14.7197 6.28027C14.8604 6.4209 15.0513 6.5 15.25 6.5C15.4487 6.5 15.6396 6.4209 15.7803 6.28027C15.9209 6.13965 16 5.94922 16 5.75L14.5 5.75ZM5.5 5.75C5.5 5.94922 5.5791 6.13965 5.71973 6.28027C5.86035 6.4209 6.05127 6.5 6.25 6.5C6.44873 6.5 6.63965 6.4209 6.78027 6.28027C6.9209 6.13965 7 5.94922 7 5.75L5.5 5.75ZM5.75 3C4.2251 3 2.7627 3.60547 1.68408 4.68457C0.605957 5.7627 0 7.22461 0 8.75L1.5 8.75C1.5 7.62305 1.94775 6.54199 2.74463 5.74512C3.54199 4.94824 4.62305 4.5 5.75 4.5L5.75 3ZM15.75 4.5C16.877 4.5 17.958 4.94824 18.7554 5.74512C19.5522 6.54199 20 7.62305 20 8.75L21.5 8.75C21.5 7.22461 20.894 5.7627 19.8159 4.68457C18.7373 3.60547 17.2749 3 15.75 3L15.75 4.5ZM13.75 20L7.75 20L7.75 21.5L13.75 21.5L13.75 20ZM7.75 20C6.78613 20 6.13818 19.998 5.65479 19.9326C5.19385 19.8711 4.99609 19.7637 4.86621 19.6328L3.80615 20.6953C4.26123 21.1504 4.82812 21.335 5.45605 21.4199C6.06201 21.502 6.82812 21.5 7.75 21.5L7.75 20ZM3 16.75C3 17.6719 2.99805 18.4385 3.08008 19.0439C3.16406 19.6719 3.3501 20.2393 3.80518 20.6943L4.86621 19.6338C4.73584 19.5039 4.62891 19.3057 4.56592 18.8438C4.50195 18.3623 4.5 17.7139 4.5 16.75L3 16.75ZM17 16.75C17 17.7139 16.998 18.3623 16.9331 18.8447C16.8711 19.3057 16.7642 19.5039 16.6328 19.6338L17.6948 20.6943C18.1499 20.2393 18.335 19.6719 18.4199 19.0439C18.502 18.4385 18.5 17.6719 18.5 16.75L17 16.75ZM13.75 21.5C14.6719 21.5 15.438 21.502 16.0439 21.4199C16.6719 21.3359 17.2402 21.1504 17.6948 20.6943L16.6338 19.6338C16.5039 19.7637 16.3062 19.8711 15.8442 19.9336C15.3618 19.998 14.7139 20 13.75 20L13.75 21.5ZM5.75 4.5C5.96387 4.5 6.17285 4.51562 6.37793 4.5459L6.59717 3.06152C6.31641 3.02051 6.03369 3 5.75 3L5.75 4.5ZM10.75 0C9.65283 0 8.58301 0.34375 7.69141 0.982422C6.79932 1.62207 6.12988 2.52441 5.77686 3.56348L7.19678 4.04492C7.44922 3.30273 7.92725 2.6582 8.56445 2.20215C9.20215 1.74512 9.96631 1.5 10.75 1.5L10.75 0ZM5.77686 3.56348C5.59326 4.10645 5.49951 4.67676 5.5 5.25L7 5.25C7 4.82715 7.06982 4.42188 7.19824 4.04492L5.77686 3.56348ZM15.75 3C15.4629 3 15.1802 3.02148 14.9028 3.06152L15.123 4.5459C15.3306 4.51562 15.54 4.5 15.75 4.5L15.75 3ZM10.75 1.5C11.5337 1.5 12.2979 1.74609 12.9346 2.20215C13.5718 2.6582 14.0498 3.30273 14.3018 4.04492L15.7222 3.56348C15.3691 2.52441 14.7002 1.62207 13.8081 0.983398C12.9165 0.34375 11.8472 0 10.75 0L10.75 1.5ZM14.3018 4.04492C14.4302 4.42188 14.5 4.82715 14.5 5.25L16 5.25C16 4.66113 15.9019 4.09375 15.7222 3.56348L14.3032 4.04492L14.3018 4.04492ZM4.5 16.75L4.5 13.334L3 13.334L3 16.75L4.5 16.75ZM4.0498 12.6475C3.29199 12.3164 2.64697 11.7705 2.19385 11.0791C1.74072 10.3867 1.5 9.57715 1.5 8.75L0 8.75C0 9.86914 0.326172 10.9639 0.938965 11.8994C1.55176 12.8359 2.42432 13.5732 3.4502 14.0215L4.0498 12.6475ZM17 13.334L17 16.75L18.5 16.75L18.5 13.334L17 13.334ZM20 8.75C20 9.57715 19.7593 10.3867 19.3062 11.0791C18.853 11.7705 18.208 12.3164 17.4502 12.6475L18.0498 14.0215C19.0757 13.5732 19.9482 12.8359 20.561 11.8994C21.1738 10.9639 21.5 9.86914 21.5 8.75L20 8.75ZM14.5 5.25L14.5 5.75L16 5.75L16 5.25L14.5 5.25ZM5.5 5.25L5.5 5.75L7 5.75L7 5.25L5.5 5.25Z" fill="#1F1711" fill-opacity="1.000000" fill-rule="nonzero"/>
	<g opacity="0.700000">
		<path id="Vector" d="M10.75 8.74512L10.231 9.28711C10.3706 9.4209 10.5566 9.49609 10.75 9.49609C10.9434 9.49609 11.1294 9.4209 11.269 9.28711L10.75 8.74512ZM10.2358 11.8145C9.81885 11.5078 9.35791 11.124 9.00879 10.7217C8.64111 10.2959 8.5 9.96484 8.5 9.75L7 9.75C7 10.5205 7.44092 11.2012 7.875 11.7031C8.32812 12.2275 8.88916 12.6865 9.34912 13.0234L10.2358 11.8145ZM8.5 9.75C8.5 9.17383 8.76318 8.92383 8.99219 8.84277C9.24219 8.75488 9.70605 8.7832 10.2319 9.28711L11.269 8.20312C10.4438 7.41309 9.4082 7.1084 8.49609 7.42773C7.56201 7.75488 7 8.65332 7 9.75L8.5 9.75ZM12.1499 13.0244C12.6099 12.6865 13.1719 12.2275 13.625 11.7031C14.0591 11.2012 14.5 10.5205 14.5 9.75L13 9.75C13 9.96484 12.8589 10.2959 12.4902 10.7217C12.1421 11.125 11.6812 11.5078 11.2642 11.8145L12.1509 13.0244L12.1499 13.0244ZM14.5 9.75C14.5 8.65332 13.937 7.75488 13.0039 7.42773C12.0918 7.1084 11.0562 7.41406 10.231 8.20312L11.269 9.28711C11.7939 8.7832 12.2578 8.75488 12.5088 8.84277C12.7368 8.92285 13 9.17383 13 9.75L14.5 9.75ZM9.3501 13.0244C9.71777 13.2939 10.1318 13.6309 10.75 13.6309L10.75 12.1309C10.7261 12.1309 10.71 12.1309 10.6558 12.1025C10.5103 12.0146 10.3696 11.9189 10.2358 11.8145L9.34912 13.0244L9.3501 13.0244ZM11.2642 11.8145C11.1304 11.9189 10.9897 12.0146 10.8442 12.1025C10.79 12.1309 10.7739 12.1309 10.75 12.1309L10.75 13.6309C11.3682 13.6309 11.7822 13.2939 12.1499 13.0244L11.2642 11.8145Z" fill="#1F1711" fill-opacity="1.000000" fill-rule="nonzero"/>
	</g>
	<g opacity="0.700000">
		<path id="Vector" d="M3.75 16.75L17.75 16.75" stroke="#1F1711" stroke-opacity="1.000000" stroke-width="1.500000" stroke-linejoin="round" stroke-linecap="round"/>
	</g>
</svg>
