<svg width="8.599976" height="8.599609" viewBox="0 0 8.59998 8.59961" fill="none" xmlns="http://www.w3.org/2000/svg" xmlns:xlink="http://www.w3.org/1999/xlink">
	<desc>
			Created with Pixso.
	</desc>
	<defs/>
	<path id="Vector" d="M1.5 5.33398L1.80005 5.33398C1.79993 5.27539 1.78296 5.21777 1.75098 5.16895C1.71899 5.12012 1.67346 5.08203 1.62 5.05859L1.5 5.33398ZM7.09998 5.33398L6.97998 5.05859C6.92651 5.08203 6.88098 5.12012 6.849 5.16895C6.81702 5.21777 6.80005 5.27539 6.80005 5.33398L7.09998 5.33398ZM5.80005 2.2998C5.80005 2.37988 5.83167 2.45605 5.88782 2.51172C5.94409 2.56836 6.02039 2.59961 6.09998 2.59961C6.17957 2.59961 6.25586 2.56836 6.31213 2.51172C6.36841 2.45605 6.40002 2.37988 6.40002 2.2998L5.80005 2.2998ZM2.19995 2.2998C2.19995 2.37988 2.23157 2.45605 2.28784 2.51172C2.34412 2.56836 2.42041 2.59961 2.5 2.59961C2.57959 2.59961 2.65588 2.56836 2.71216 2.51172C2.76843 2.45605 2.80005 2.37988 2.80005 2.2998L2.19995 2.2998ZM2.30005 1.2002C1.68994 1.2002 1.10498 1.44238 0.673706 1.87402C0.24231 2.30469 0 2.88965 0 3.5L0.599976 3.5C0.599976 3.04883 0.779053 2.61719 1.0979 2.29785C1.41675 1.97949 1.84912 1.7998 2.30005 1.7998L2.30005 1.2002ZM6.30005 1.7998C6.75085 1.7998 7.18323 1.97949 7.50208 2.29785C7.82092 2.61719 8 3.04883 8 3.5L8.59998 3.5C8.59998 2.88965 8.35767 2.30469 7.92639 1.87402C7.495 1.44238 6.91003 1.2002 6.30005 1.2002L6.30005 1.7998ZM5.5 8L3.09998 8L3.09998 8.59961L5.5 8.59961L5.5 8ZM3.09998 8C2.71436 8 2.4552 7.99902 2.26196 7.97363C2.07764 7.94824 1.99841 7.90527 1.94641 7.85352L1.52246 8.27832C1.70435 8.45996 1.93115 8.53418 2.18237 8.56836C2.4248 8.60059 2.7312 8.59961 3.09998 8.59961L3.09998 8ZM1.19995 6.7002C1.19995 7.06836 1.19922 7.375 1.23206 7.61719C1.26562 7.86914 1.33997 8.0957 1.52197 8.27734L1.94641 7.85352C1.89441 7.80176 1.85156 7.72266 1.82642 7.53809C1.80078 7.34473 1.80005 7.08594 1.80005 6.7002L1.19995 6.7002ZM6.80005 6.7002C6.80005 7.08594 6.79919 7.34473 6.77319 7.53809C6.74841 7.72266 6.70557 7.80176 6.6532 7.85352L7.078 8.27734C7.26001 8.0957 7.33398 7.86914 7.36804 7.61719C7.40076 7.375 7.40002 7.06836 7.40002 6.7002L6.80005 6.7002ZM5.5 8.59961C5.86877 8.59961 6.17517 8.60059 6.4176 8.56836C6.66882 8.53418 6.896 8.45996 7.078 8.27734L6.65356 7.85352C6.60156 7.90527 6.52246 7.94824 6.33765 7.97363C6.14478 7.99902 5.88562 8 5.5 8L5.5 8.59961ZM2.30005 1.7998C2.38562 1.7998 2.46924 1.80664 2.55115 1.81836L2.63879 1.22461C2.52661 1.20801 2.41333 1.2002 2.30005 1.2002L2.30005 1.7998ZM4.30005 0C3.86108 0 3.43323 0.137695 3.07642 0.393555C2.71973 0.648438 2.4519 1.00977 2.31079 1.4248L2.87878 1.61816C2.97961 1.32129 3.17102 1.06348 3.4259 0.880859C3.68079 0.698242 3.98645 0.599609 4.30005 0.599609L4.30005 0ZM2.31079 1.4248C2.23718 1.64258 2.19983 1.87012 2.19995 2.09961L2.80005 2.09961C2.80005 1.93066 2.828 1.76855 2.87915 1.61816L2.31079 1.4248ZM6.30005 1.2002C6.18518 1.2002 6.07202 1.20801 5.96118 1.22461L6.04919 1.81836C6.1322 1.80566 6.21606 1.7998 6.30005 1.7998L6.30005 1.2002ZM4.30005 0.599609C4.61353 0.599609 4.91907 0.698242 5.17383 0.880859C5.42871 1.06348 5.62 1.32129 5.72083 1.61816L6.28882 1.4248C6.14771 1.00977 5.88 0.648438 5.52332 0.393555C5.16663 0.137695 4.73877 0 4.30005 0L4.30005 0.599609ZM5.72083 1.61816C5.77197 1.76855 5.80005 1.93066 5.80005 2.09961L6.40002 2.09961C6.40002 1.86426 6.36084 1.6377 6.28882 1.4248L5.72119 1.61816L5.72083 1.61816ZM1.80005 6.7002L1.80005 5.33398L1.19995 5.33398L1.19995 6.7002L1.80005 6.7002ZM1.62 5.05859C1.31677 4.92676 1.05872 4.70801 0.877563 4.43164C0.696411 4.1543 0.599854 3.83105 0.599976 3.5L0 3.5C0 3.94727 0.130493 4.38574 0.37561 4.75977C0.620728 5.13477 0.969849 5.42969 1.38 5.6084L1.62 5.05859ZM6.80005 5.33398L6.80005 6.7002L7.40002 6.7002L7.40002 5.33398L6.80005 5.33398ZM8 3.5C8.00012 3.83105 7.90369 4.1543 7.72241 4.43164C7.54126 4.70801 7.2832 4.92676 6.97998 5.05859L7.21997 5.6084C7.63025 5.42969 7.97925 5.13477 8.22437 4.75977C8.46948 4.38574 8.59998 3.94727 8.59998 3.5L8 3.5ZM5.80005 2.09961L5.80005 2.2998L6.40002 2.2998L6.40002 2.09961L5.80005 2.09961ZM2.19995 2.09961L2.19995 2.2998L2.80005 2.2998L2.80005 2.09961L2.19995 2.09961Z" fill="#312C27" fill-opacity="1.000000" fill-rule="nonzero"/>
	<g opacity="0.500000">
		<path id="Vector" d="M4.30005 3.49805L4.09241 3.71484C4.14832 3.76855 4.22266 3.79785 4.30005 3.79785C4.37744 3.79785 4.45178 3.76855 4.50769 3.71484L4.30005 3.49805ZM4.09448 4.72559C3.92761 4.60352 3.74329 4.44922 3.60364 4.28906C3.45642 4.11816 3.40002 3.98535 3.40002 3.89941L2.80005 3.89941C2.80005 4.20801 2.97644 4.48047 3.15002 4.68066C3.3313 4.89062 3.55566 5.07422 3.73962 5.20898L4.09448 4.72559ZM3.40002 3.89941C3.40002 3.66895 3.50525 3.56934 3.5968 3.53711C3.6969 3.50195 3.88245 3.5127 4.0929 3.71484L4.50769 3.28125C4.17761 2.96484 3.76331 2.84277 3.39844 2.9707C3.0249 3.10156 2.80005 3.46094 2.80005 3.89941L3.40002 3.89941ZM4.86011 5.20898C5.04407 5.07422 5.2688 4.89062 5.45007 4.68066C5.62366 4.48047 5.80005 4.20801 5.80005 3.89941L5.20007 3.89941C5.20007 3.98535 5.14368 4.11816 4.99609 4.28906C4.85681 4.4502 4.67249 4.60352 4.50562 4.72559L4.86047 5.20898L4.86011 5.20898ZM5.80005 3.89941C5.80005 3.46094 5.57483 3.10156 5.20166 2.9707C4.83679 2.84277 4.42249 2.96582 4.09241 3.28125L4.50769 3.71484C4.71765 3.5127 4.9032 3.50195 5.00366 3.53711C5.09485 3.56934 5.20007 3.66895 5.20007 3.89941L5.80005 3.89941ZM3.73999 5.20898C3.88721 5.31738 4.05286 5.45215 4.30005 5.45215L4.30005 4.85254C4.29041 4.85254 4.28406 4.85254 4.26245 4.84082C4.2041 4.80566 4.14795 4.76758 4.09448 4.72559L3.73962 5.20898L3.73999 5.20898ZM4.50562 4.72559C4.45215 4.76758 4.396 4.80566 4.33765 4.84082C4.31604 4.85254 4.30969 4.85254 4.30005 4.85254L4.30005 5.45215C4.54724 5.45215 4.71289 5.31738 4.86011 5.20898L4.50562 4.72559Z" fill="#312C27" fill-opacity="1.000000" fill-rule="nonzero"/>
	</g>
	<g opacity="0.500000">
		<path id="Vector" d="M1.5 6.7002L7.09998 6.7002" stroke="#312C27" stroke-opacity="1.000000" stroke-width="1.500000" stroke-linejoin="round" stroke-linecap="round"/>
	</g>
</svg>
