<svg width="18.750000" height="18.750000" viewBox="0 0 18.75 18.75" fill="none" xmlns="http://www.w3.org/2000/svg" xmlns:xlink="http://www.w3.org/1999/xlink">
	<desc>
			Created with Pixso.
	</desc>
	<defs/>
	<path id="Vector" d="M9.375 0C7.521 0 5.70801 0.549805 4.1665 1.58008C2.625 2.61035 1.42334 4.07422 0.713867 5.78711C0.00390625 7.5 -0.181641 9.38574 0.180176 11.2041C0.541992 13.0225 1.43457 14.6934 2.74609 16.0039C4.05713 17.3154 5.72754 18.208 7.5459 18.5703C9.36475 18.9316 11.2495 18.7461 12.9629 18.0361C14.6758 17.3271 16.1396 16.125 17.1699 14.583C18.2002 13.042 18.75 11.2295 18.75 9.375C18.7471 6.88965 17.7588 4.50684 16.001 2.74902C14.2437 0.991211 11.8604 0.00292969 9.375 0ZM9.375 18C7.66895 18 6.00146 17.4941 4.58301 16.5469C3.16504 15.5986 2.05957 14.252 1.40674 12.6758C0.753906 11.0996 0.583008 9.36523 0.915527 7.69238C1.24854 6.01953 2.06982 4.48242 3.27637 3.27637C4.48242 2.07031 6.01904 1.24805 7.69238 0.916016C9.36523 0.583008 11.0996 0.753906 12.6758 1.40625C14.2515 2.05957 15.5986 3.16504 16.5464 4.58301C17.4941 6.00195 18 7.66895 18 9.375C17.9976 11.6621 17.0879 13.8545 15.4712 15.4707C13.854 17.0879 11.6616 17.9971 9.375 18ZM12.6748 11.8506C12.1553 12.543 11.4312 13.0547 10.605 13.3125C9.77832 13.5703 8.89209 13.5615 8.0708 13.2881C7.24951 13.0146 6.53516 12.4893 6.0293 11.7871C5.52295 11.084 5.25049 10.2402 5.25049 9.375C5.25049 8.50977 5.52295 7.66602 6.0293 6.96289C6.53516 6.26074 7.24951 5.73535 8.0708 5.46191C8.89209 5.18848 9.77832 5.17969 10.605 5.4375C11.4312 5.69531 12.1553 6.20703 12.6748 6.89941C12.7046 6.93848 12.7261 6.9834 12.7383 7.03125C12.7505 7.0791 12.7534 7.12891 12.7466 7.17676C12.7397 7.22559 12.7231 7.27344 12.6982 7.31543C12.6729 7.35742 12.6396 7.39453 12.6006 7.4248C12.561 7.4541 12.5161 7.47559 12.4683 7.48828C12.4209 7.5 12.3711 7.50293 12.3223 7.49609C12.2734 7.48926 12.2266 7.47266 12.1841 7.44727C12.1416 7.42285 12.1045 7.38965 12.0752 7.34961C11.6499 6.7832 11.0576 6.36426 10.3813 6.15332C9.70508 5.94238 8.97998 5.94922 8.30762 6.17285C7.63574 6.39746 7.05127 6.82715 6.63721 7.40137C6.22266 7.97656 6 8.66699 6 9.375C6 10.083 6.22266 10.7734 6.63721 11.3486C7.05127 11.9229 7.63574 12.3525 8.30762 12.5771C8.97998 12.8008 9.70508 12.8076 10.3813 12.5967C11.0576 12.3857 11.6499 11.9668 12.0752 11.4004C12.1348 11.3203 12.2236 11.2676 12.3223 11.2539C12.4209 11.2402 12.521 11.2656 12.6006 11.3252C12.6802 11.3857 12.7324 11.4746 12.7466 11.5732C12.7607 11.6709 12.7349 11.7715 12.6748 11.8506Z" fill="#DEC5B1" fill-opacity="1.000000" fill-rule="nonzero"/>
</svg>
