<svg width="18.884277" height="18.916016" viewBox="0 0 18.8843 18.916" fill="none" xmlns="http://www.w3.org/2000/svg" xmlns:xlink="http://www.w3.org/1999/xlink">
	<desc>
			Created with Pixso.
	</desc>
	<defs/>
	<path id="Vector" d="M13.4419 4.45898C13.4419 4.19336 13.5474 3.93945 13.7349 3.75195C13.9224 3.56445 14.1768 3.45898 14.4419 3.45898C14.707 3.45898 14.9614 3.56445 15.1489 3.75195C15.3364 3.93945 15.4419 4.19336 15.4419 4.45898C15.4419 4.72461 15.3364 4.97852 15.1489 5.16602C14.9614 5.35352 14.707 5.45898 14.4419 5.45898C14.1768 5.45898 13.9224 5.35352 13.7349 5.16602C13.5474 4.97852 13.4419 4.72461 13.4419 4.45898Z" fill="#CEAAD0" fill-opacity="1.000000" fill-rule="nonzero"/>
	<path id="Vector" d="M9.44189 4.70898C8.18213 4.70898 6.97412 5.20898 6.08301 6.10059C5.19238 6.99121 4.69189 8.19922 4.69189 9.45898C4.69189 10.7188 5.19238 11.9268 6.08301 12.8174C6.97412 13.709 8.18213 14.209 9.44189 14.209C10.7017 14.209 11.9097 13.709 12.8008 12.8174C13.6914 11.9268 14.1919 10.7188 14.1919 9.45898C14.1919 8.19922 13.6914 6.99121 12.8008 6.10059C11.9097 5.20898 10.7017 4.70898 9.44189 4.70898ZM6.19189 9.45898C6.19189 8.59668 6.53418 7.77051 7.14355 7.16113C7.75342 6.55176 8.58008 6.20898 9.44189 6.20898C10.3037 6.20898 11.1304 6.55176 11.7402 7.16113C12.3496 7.77051 12.6919 8.59668 12.6919 9.45898C12.6919 10.3213 12.3496 11.1475 11.7402 11.7568C11.1304 12.3662 10.3037 12.709 9.44189 12.709C8.58008 12.709 7.75342 12.3662 7.14355 11.7568C6.53418 11.1475 6.19189 10.3213 6.19189 9.45898Z" fill="#CEAAD0" fill-opacity="1.000000" fill-rule="evenodd"/>
	<path id="Vector" d="M14.6997 0.291016C11.2051 -0.0966797 7.67871 -0.0966797 4.18408 0.291016C2.17188 0.515625 0.546875 2.10059 0.311035 4.12207C-0.103516 7.66699 -0.103516 11.248 0.311035 14.793C0.546875 16.8145 2.1709 18.3994 4.18408 18.625C7.67871 19.0117 11.2051 19.0117 14.6997 18.625C16.7119 18.3994 18.3369 16.8145 18.5728 14.793C18.9878 11.248 18.9878 7.66699 18.5728 4.12207C18.3369 2.10059 16.7129 0.515625 14.6997 0.291016ZM4.3501 1.78027C7.73438 1.40527 11.1494 1.40527 14.5342 1.78027C15.8638 1.93066 16.9287 2.97949 17.084 4.29785C17.4849 7.72559 17.4849 11.1895 17.084 14.6172C17.0039 15.2627 16.7085 15.8613 16.2456 16.3184C15.7832 16.7744 15.1802 17.0625 14.5342 17.1338C11.1494 17.5088 7.73438 17.5088 4.3501 17.1338C3.7041 17.0625 3.10059 16.7744 2.63818 16.3184C2.17529 15.8613 1.87988 15.2627 1.7998 14.6172C1.39893 11.1895 1.39893 7.72559 1.7998 4.29785C1.87988 3.65234 2.17529 3.05371 2.63818 2.59668C3.10059 2.14062 3.7041 1.85254 4.3501 1.78027Z" fill="#CEAAD0" fill-opacity="1.000000" fill-rule="evenodd"/>
</svg>
