<svg width="239.362671" height="78.780273" viewBox="0 0 239.363 78.7803" fill="none" xmlns="http://www.w3.org/2000/svg" xmlns:xlink="http://www.w3.org/1999/xlink">
	<desc>
			Created with Pixso.
	</desc>
	<defs/>
	<path id="Форма 2" d="M129.661 64.8721C126.93 62.5225 124.294 60.0137 121.754 57.3467C119.277 54.6162 116.959 51.8213 114.8 48.9639C112.704 46.1064 110.767 43.2168 108.989 40.2949C107.274 37.3105 105.814 34.3887 104.607 31.5312C102.448 33.8809 100.289 36.2627 98.1293 38.6758C96.0336 41.0254 94.16 43.4072 92.5089 45.8203C90.8577 48.1699 89.524 50.5518 88.5079 52.9648C87.4283 55.3145 86.8885 57.6641 86.8885 60.0137C86.8885 62.8086 87.3649 65.2217 88.3174 67.2539C89.2065 69.2227 90.4132 70.8418 91.9374 72.1123C93.4615 73.3828 95.208 74.3027 97.1766 74.875C99.1454 75.4463 101.178 75.7324 103.273 75.7324C107.465 75.7324 111.91 74.748 116.61 72.7793C121.309 70.8105 125.66 68.1748 129.661 64.8721ZM117.848 8.38281C117.848 6.16016 117.34 4.57227 116.324 3.62012C115.371 2.60352 114.324 2.0957 113.18 2.0957C112.228 2.0957 111.212 2.41309 110.132 3.04785C109.116 3.68359 108.163 4.60449 107.274 5.81055C106.449 6.9541 105.75 8.35059 105.179 10.002C104.607 11.6533 104.321 13.4639 104.321 15.4316C104.321 19.0518 104.988 22.8945 106.322 26.959C107.909 25.3076 109.402 23.6885 110.799 22.1006C112.196 20.5127 113.403 18.957 114.419 17.4326C115.499 15.8447 116.324 14.3203 116.896 12.8604C117.531 11.3359 117.848 9.84375 117.848 8.38281ZM154.524 77.9229C154.524 78.1133 154.397 78.3037 154.143 78.4951C153.889 78.6855 153.507 78.7803 152.999 78.7803C149.189 77.5742 145.442 75.8906 141.759 73.7314C138.075 71.5088 134.487 68.9365 130.994 66.0156C128.581 67.8574 126.072 69.54 123.469 71.0645C120.865 72.5889 118.198 73.8906 115.467 74.9697C112.799 76.0498 110.1 76.875 107.37 77.4473C104.702 78.0186 102.13 78.3037 99.6534 78.3037C97.2402 78.3037 94.954 77.9551 92.7947 77.2559C90.6355 76.6211 88.762 75.6367 87.1743 74.3027C85.5867 72.9062 84.3483 71.1914 83.4591 69.1592C82.5065 67.127 82.0303 64.7451 82.0303 62.0146C82.0303 59.0928 82.697 56.2354 84.0306 53.4414C85.3644 50.583 87.079 47.7891 89.1748 45.0586C91.2705 42.3271 93.5885 39.6602 96.1288 37.0566C98.7325 34.4521 101.273 31.9121 103.75 29.4355C101.908 24.4814 100.987 20.0049 100.987 16.0039C100.987 13.6543 101.4 11.4951 102.225 9.52637C103.115 7.55762 104.226 5.87402 105.56 4.47754C106.893 3.08008 108.354 2 109.942 1.23828C111.593 0.413086 113.149 0 114.609 0C116.324 0 117.88 0.571289 119.277 1.71484C120.674 2.79395 121.373 4.60449 121.373 7.14453C121.373 8.73242 120.96 10.3828 120.135 12.0977C119.372 13.8125 118.325 15.5908 116.991 17.4326C115.721 19.2109 114.197 21.084 112.418 23.0527C110.704 24.958 108.894 26.9268 106.989 28.959C109.084 34.7383 112.196 40.6123 116.324 46.582C120.516 52.4883 125.596 58.0137 131.566 63.1582C134.805 60.2363 137.408 57.0293 139.377 53.5361C141.346 50.0439 142.33 46.3916 142.33 42.5811C142.33 41.3115 142.14 40.041 141.759 38.7705C141.441 37.4375 140.774 36.04 139.758 34.5791C139.758 34.4521 139.949 34.3252 140.33 34.1982C140.711 34.0078 141.06 33.9131 141.378 33.9131C142.267 33.9131 142.965 34.2305 143.473 34.8652C144.045 35.4365 144.458 36.1357 144.712 36.9609C145.029 37.7861 145.22 38.6436 145.283 39.5332C145.41 40.3584 145.474 41.0254 145.474 41.5332C145.474 45.7246 144.299 49.7891 141.949 53.7266C139.663 57.6006 136.678 61.1572 132.995 64.3965C139.155 69.667 146.109 73.9541 153.857 77.2559C154.301 77.5107 154.524 77.7324 154.524 77.9229Z" fill="#D0D0D0" fill-opacity="1.000000" fill-rule="nonzero"/>
	<path id="Форма 1" d="M38.3361 22.124C38.3361 22.2842 38.272 22.4121 38.144 22.5088Q37.952 22.6523 37.6641 22.8447C36.704 23.4209 35.92 24.2207 35.312 25.2441C34.704 26.2686 34.208 27.3887 33.824 28.6045C33.472 29.8203 33.2321 31.0684 33.104 32.3486C32.9761 33.5967 32.912 34.748 32.912 35.8047C32.912 36.54 32.944 37.4521 33.0081 38.54C33.104 39.5967 33.2 40.7646 33.296 42.0449C33.424 43.3242 33.52 44.6846 33.584 46.124C33.6801 47.5322 33.728 48.9727 33.728 50.4443C33.728 52.5244 33.6 54.54 33.344 56.4922C33.12 58.4443 32.656 60.1885 31.952 61.7246C31.28 63.2607 30.3361 64.4922 29.12 65.4209C27.9041 66.3486 26.3201 66.8125 24.368 66.8125C23.472 66.8125 22.624 66.6367 21.824 66.2842C21.056 65.9648 20.3361 65.5 19.6641 64.8926C19.024 64.2842 18.432 63.5801 17.8881 62.7803C17.376 61.9805 16.912 61.1006 16.496 60.1406C16.08 61.2607 15.584 62.3008 15.0081 63.2607C14.464 64.2207 13.856 65.0527 13.184 65.7568C12.512 66.4609 11.776 67.0049 10.976 67.3887C10.176 67.7725 9.328 67.9648 8.43201 67.9648C7.05603 67.9648 5.88806 67.6123 4.92798 66.9082C4 66.2041 3.23206 65.2764 2.62402 64.124Q1.71204 62.4443 1.18396 60.2842Q1.11084 59.9482 1.04321 59.6104L1.04199 59.6045L1.04199 59.6035Q0.667114 57.7295 0.463989 55.8203Q0.223999 53.5166 0.128052 51.3564Q0.0799561 49.1484 0.0319824 47.4688Q0 46.4609 0 45.4902Q0 43.5488 0.128052 41.7568Q0.368042 39.0205 0.656006 36.8604Q0.94397 34.6523 1.23206 33.0684C1.42395 32.0127 1.552 31.2285 1.61597 30.7168C1.64795 30.5244 1.83997 30.3965 2.19202 30.332C2.57605 30.2686 2.91199 30.2363 3.19995 30.2363C3.42395 30.2363 3.61597 30.2686 3.776 30.332C3.93604 30.3643 4.01599 30.4609 4.01599 30.6201C4.01599 30.8125 3.93604 31.1484 3.776 31.6289C3.61597 32.0762 3.37598 32.9404 3.05603 34.2207C2.92798 34.7969 2.78406 35.6289 2.62402 36.7168C2.49597 37.7725 2.36804 38.9727 2.23999 40.3164Q2.09607 42.332 2 44.6367Q1.90405 46.8926 1.90405 49.0527Q1.90405 50.7324 2.04797 52.748Q2.19202 54.7168 2.52795 56.6846C2.75195 57.9648 3.05603 59.2129 3.44006 60.4287C3.82397 61.6445 4.28796 62.7168 4.83203 63.6445Q5.69604 65.0361 6.84802 65.8525C7.61597 66.4287 8.51196 66.7168 9.53601 66.7168C10.304 66.7168 11.0081 66.5244 11.6479 66.1406C12.288 65.7568 12.88 65.2129 13.424 64.5088C13.968 63.8369 14.448 63.0361 14.864 62.1084C15.312 61.1807 15.712 60.1729 16.064 59.084C15.328 57.0684 14.7841 54.9248 14.432 52.6523Q13.9041 49.2441 13.9041 46.3643C13.9041 44.9561 13.952 43.5645 14.048 42.1885C14.176 40.8125 14.3521 39.5801 14.576 38.4922C14.8 37.4043 15.088 36.5244 15.4401 35.8525C15.792 35.1807 16.208 34.8447 16.688 34.8447C17.072 34.8447 17.408 35.084 17.696 35.5645C18.016 36.0449 18.272 36.7002 18.464 37.5322C18.688 38.3643 18.848 39.3564 18.944 40.5088Q19.136 42.1885 19.136 44.1562C19.136 46.2686 18.9921 48.4922 18.704 50.8281C18.416 53.1328 17.968 55.3887 17.36 57.5967C17.776 58.7168 18.256 59.7568 18.8 60.7168C19.344 61.6445 19.952 62.4609 20.624 63.1641C21.328 63.8682 22.0961 64.4121 22.928 64.7969Q23.1552 64.9062 23.3896 64.9961Q24.4932 65.4209 25.76 65.4209C27.168 65.4209 28.3201 65.0684 29.2161 64.3643C30.1121 63.6924 30.816 62.7646 31.328 61.5801C31.84 60.3643 32.192 58.9727 32.384 57.4043C32.576 55.8047 32.672 54.0928 32.672 52.2686C32.672 50.6367 32.608 48.9561 32.48 47.2285C32.384 45.5 32.272 43.7881 32.144 42.0928C32.016 40.3643 31.8881 38.7002 31.76 37.1006C31.6641 35.4688 31.616 33.9648 31.616 32.5889C31.616 31.5967 31.76 30.4443 32.048 29.1328C32.368 27.8203 32.7841 26.5889 33.296 25.4365C33.84 24.2529 34.448 23.2607 35.12 22.4609C35.824 21.6289 36.5601 21.2129 37.328 21.2129C37.552 21.2129 37.776 21.3242 38 21.5488C38.224 21.7402 38.3361 21.9326 38.3361 22.124ZM164.791 49.0527C164.791 50.6201 164.343 52.3164 163.447 54.1406Q162.151 56.877 159.847 59.5645Q157.543 62.2529 154.375 64.748C152.263 66.4121 149.991 67.8848 147.559 69.1641C145.127 70.4443 142.567 71.4521 139.879 72.1885C137.191 72.9561 134.503 73.3408 131.815 73.3408C131.367 73.3408 130.871 73.3242 130.327 73.292C129.815 73.2607 129.335 73.1807 128.887 73.0527C128.439 72.9561 128.055 72.7803 127.735 72.5244C127.415 72.3008 127.255 71.9805 127.255 71.5645C127.255 70.9883 127.543 70.4287 128.119 69.8848C128.695 69.3721 129.431 68.8926 130.327 68.4443C131.223 67.9961 132.199 67.5967 133.255 67.2441C134.311 66.8926 135.319 66.5889 136.279 66.332Q137.767 65.9482 138.871 65.708Q139.975 65.5166 140.359 65.5166Q140.647 65.5166 140.791 65.6602C140.887 65.7568 140.935 65.8525 140.935 65.9482C140.935 66.1084 140.855 66.1885 140.695 66.1885L140.071 66.1885C139.239 66.1885 138.183 66.3486 136.903 66.6689C135.623 66.9883 134.375 67.3887 133.159 67.8682C131.943 68.3486 130.903 68.877 130.039 69.4521C129.175 70.0605 128.743 70.6201 128.743 71.1328C128.743 71.4844 128.855 71.7568 129.079 71.9482C129.335 72.1729 129.639 72.3486 129.991 72.4766C130.343 72.6045 130.711 72.6846 131.095 72.7168C131.479 72.7803 131.815 72.8125 132.103 72.8125C134.375 72.8125 136.695 72.4287 139.063 71.6602C141.463 70.8926 143.783 69.8682 146.023 68.5889C148.295 67.3408 150.423 65.8848 152.407 64.2207C154.423 62.5889 156.183 60.8926 157.687 59.1328C159.191 57.3408 160.375 55.5645 161.239 53.8047C162.103 52.0127 162.535 50.3486 162.535 48.8125Q162.535 47.6191 162.117 46.5967Q161.544 45.1914 160.183 44.1084C158.647 42.8281 156.103 42.0928 152.551 41.9004C151.111 43.2441 149.527 44.332 147.799 45.1641C146.103 45.9961 144.375 46.4121 142.615 46.4121C141.367 46.4121 140.743 46.1084 140.743 45.5C140.743 45.1162 140.999 44.6846 141.511 44.2041C142.055 43.6924 142.791 43.2129 143.719 42.7646C144.679 42.3164 145.815 41.9482 147.127 41.6602C148.439 41.3408 149.879 41.1807 151.447 41.1807L152.023 41.1807C153.079 39.9326 153.927 38.5723 154.567 37.1006C155.207 35.5967 155.527 34.124 155.527 32.6846C155.527 31.7246 155.351 30.8125 154.999 29.9482C154.679 29.0527 154.135 28.2842 153.367 27.6445C152.631 27.0049 151.655 26.4922 150.439 26.1084Q148.663 25.5322 146.119 25.5322C144.967 25.5322 143.367 25.6924 141.319 26.0127C139.303 26.332 137.111 26.8281 134.743 27.5C132.407 28.1406 130.023 28.9561 127.591 29.9482C125.159 30.9404 122.951 32.0928 120.967 33.4043C118.983 34.7168 117.367 36.2041 116.119 37.8682C114.871 39.5322 114.247 41.3721 114.247 43.3887C114.247 43.6445 114.199 43.8682 114.103 44.0605Q113.959 44.3008 113.815 44.3008C113.687 44.3008 113.591 44.1729 113.527 43.916C113.431 43.6289 113.383 43.1641 113.383 42.5244Q113.53 41.4648 113.87 40.4717Q114.532 38.54 115.927 36.8604C117.335 35.1641 119.079 33.6602 121.159 32.3486C123.207 31.0049 125.463 29.8525 127.927 28.8926C130.391 27.9326 132.823 27.1484 135.223 26.54C137.655 25.9004 139.911 25.4365 141.991 25.1484Q145.159 24.6689 147.175 24.6689C149.127 24.6689 150.775 24.8604 152.119 25.2441C153.495 25.5967 154.615 26.0928 155.479 26.7324C156.343 27.3408 156.967 28.0762 157.351 28.9404C157.735 29.8047 157.927 30.7168 157.927 31.6768C157.927 33.2441 157.495 34.877 156.631 36.5723Q155.383 39.0684 153.223 41.2285C155.271 41.3242 157.031 41.5967 158.503 42.0449Q160.711 42.6689 162.103 43.7246C163.031 44.3965 163.703 45.1963 164.119 46.124C164.567 47.0205 164.791 47.9961 164.791 49.0527ZM89.34 55.9766C89.1671 56.29 88.968 56.5898 88.7428 56.877Q86.1028 60.6201 82.7428 62.7803C80.5028 64.1885 78.2788 64.8926 76.0708 64.8926C74.6948 64.8926 73.3828 64.5723 72.1348 63.9326C70.8867 63.3242 69.7827 62.332 68.8228 60.9561C68.6947 60.7969 68.6307 60.6523 68.6307 60.5244C68.6307 60.2363 68.8228 60.0928 69.2068 60.0928C69.2388 60.0928 69.3507 60.124 69.5427 60.1885C69.7987 60.1885 70.0868 60.2842 70.4067 60.4766C70.7588 60.6367 71.2548 60.7168 71.8948 60.7168C72.8867 60.7168 73.8147 60.54 74.6787 60.1885C75.5427 59.8369 76.2788 59.3887 76.8867 58.8447C77.5267 58.2686 78.0227 57.6289 78.3748 56.9248C78.7268 56.1885 78.9027 55.4365 78.9027 54.6689C78.9027 53.708 78.6467 52.877 78.1348 52.1729C77.6548 51.4688 76.8228 51.1162 75.6388 51.1162C74.4227 51.1162 73.3027 51.5488 72.2788 52.4121C71.2548 53.2441 70.3268 54.2686 69.4948 55.4844C68.6947 56.6689 68.0067 57.9326 67.4308 59.2764Q66.5668 61.2441 66.1348 62.7324C65.9747 63.2764 65.8308 63.6123 65.7028 63.7402C65.5747 63.8682 65.4308 63.9326 65.2708 63.9326C64.9481 63.9326 64.7867 63.6504 64.7867 63.0859C64.7867 63.0342 64.7881 62.9805 64.7908 62.9248C64.7908 62.6367 64.8068 62.2842 64.8387 61.8682C64.8707 61.4521 64.9027 61.0049 64.9348 60.5244C64.9348 60.0449 64.9508 59.5645 64.9828 59.084C65.0148 58.5723 65.0308 58.1084 65.0308 57.6924C65.0308 57.2715 65.0281 56.832 65.0226 56.375C64.9188 56.542 64.8112 56.709 64.6996 56.877C63.0676 59.3086 61.4197 61.1162 59.7556 62.3008C58.0917 63.4844 56.5397 64.0762 55.0996 64.0762C53.2756 64.0762 51.8837 63.2129 50.9236 61.4844C49.8036 62.6045 48.5397 63.4521 47.1316 64.0283C45.7556 64.6045 44.3956 64.8926 43.0516 64.8926C42.2516 64.8926 41.4836 64.7803 40.7477 64.5566C40.0436 64.332 39.4357 63.9961 38.9236 63.5488C38.3796 63.0684 37.9476 62.4766 37.6277 61.7725C37.3076 61.0361 37.1476 60.1885 37.1476 59.2285C37.1476 58.0762 37.4197 56.9082 37.9636 55.7246C38.4756 54.5088 39.1957 53.4209 40.1237 52.4609C41.0836 51.4688 42.2036 50.6523 43.4836 50.0127Q43.9968 49.7559 44.5339 49.5684Q46.0066 49.0527 47.6597 49.0527C48.8756 49.0527 49.8196 49.2285 50.4916 49.5801C51.1636 49.9004 51.4996 50.2041 51.4996 50.4922C51.4996 50.6201 51.4357 50.7168 51.3076 50.7803C51.1797 50.8447 51.0676 50.877 50.9717 50.877C50.9397 50.8447 50.9076 50.8281 50.8756 50.8281L50.8276 50.8281C50.4436 50.4766 50.0116 50.2041 49.5316 50.0127C49.0516 49.7881 48.3477 49.6768 47.4197 49.6768C46.1716 49.6768 45.0356 49.9482 44.0116 50.4922C43.0197 51.0049 42.1716 51.6924 41.4677 52.5566C40.7637 53.3887 40.2196 54.3164 39.8357 55.3408C39.4517 56.3643 39.2596 57.3721 39.2596 58.3643C39.2596 60.2842 39.7076 61.6768 40.6036 62.54C41.4996 63.4043 42.6196 63.8369 43.9636 63.8369C45.0516 63.8369 46.1876 63.5645 47.3716 63.0205C48.5557 62.4766 49.6116 61.708 50.5397 60.7168C50.0276 59.5645 49.7716 58.0605 49.7716 56.2041Q49.7716 54.3809 50.4436 53.0361C50.8916 52.1406 51.5316 51.6924 52.3636 51.6924C53.5156 51.6924 54.0917 52.3643 54.0917 53.708C54.0917 55.0527 53.8997 56.2686 53.5156 57.3564C53.1316 58.4121 52.6196 59.3721 51.9796 60.2363C52.8756 61.9004 54.1237 62.7324 55.7236 62.7324C56.9397 62.7324 58.2356 62.2207 59.6116 61.1963C61.0197 60.1729 62.3956 58.6846 63.7396 56.7324C64.0596 56.2529 64.3477 55.7568 64.6036 55.2441L64.9867 54.4785C64.9727 53.9238 64.9554 53.3467 64.9348 52.748Q64.8387 49.916 64.6947 46.9404C64.5988 44.9248 64.5188 42.9248 64.4547 40.9404C64.3907 38.9561 64.3588 37.1328 64.3588 35.4688Q64.3588 33.5 64.6467 31.6768Q64.9348 29.8047 65.5587 28.4121C65.9747 27.4521 66.5028 26.7002 67.1428 26.1562C67.7827 25.5801 68.5348 25.292 69.3988 25.292C70.2948 25.292 71.0468 25.4521 71.6548 25.7725C72.2948 26.0605 72.8068 26.4922 73.1908 27.0684C73.5747 27.6123 73.8468 28.2842 74.0067 29.084C74.1987 29.8525 74.2948 30.7002 74.2948 31.6289C74.2948 33.2285 74.0708 34.9883 73.6228 36.9082C73.1748 38.7969 72.5828 40.7002 71.8468 42.6201Q70.7428 45.5 69.3027 48.1885Q67.9108 50.8281 66.4227 52.7969C66.4868 53.7568 66.5188 54.748 66.5188 55.7725C66.5508 56.7969 66.5988 57.8848 66.6627 59.0361C67.4628 57.3086 68.3428 55.8203 69.3027 54.5723C69.7188 54.0283 70.1827 53.5 70.6947 52.9883C71.2388 52.4443 71.7987 51.9648 72.3748 51.5488C72.9828 51.1328 73.6228 50.7969 74.2948 50.54C74.9988 50.2842 75.7347 50.1562 76.5028 50.1562C77.7188 50.1562 78.7748 50.4609 79.6708 51.0684C80.5668 51.6768 81.0148 52.6523 81.0148 53.9961C81.0148 55.2764 80.6948 56.3643 80.0548 57.2607C79.4468 58.1562 78.6787 58.9082 77.7507 59.5166C76.8228 60.0928 75.8308 60.5244 74.7748 60.8125C73.7188 61.1006 72.7588 61.2764 71.8948 61.3408C71.8308 61.3408 71.7987 61.3564 71.7987 61.3887C71.7987 61.4521 71.8468 61.5488 71.9427 61.6768Q72.9027 62.7803 74.1028 63.2607Q74.6794 63.4912 75.2783 63.6113L75.2784 63.6113L75.2788 63.6113Q75.9258 63.7402 76.5988 63.7402C77.6548 63.7402 78.7268 63.5488 79.8147 63.1641Q80.124 63.0459 80.4282 62.916Q81.7288 62.3584 82.9348 61.5801C83.9268 60.9082 84.8387 60.1562 85.6708 59.3242C86.5348 58.4609 87.2388 57.5967 87.7827 56.7324C88.1028 56.2529 88.3907 55.7568 88.6467 55.2441L89.4148 53.708L89.4252 53.7109C89.4972 53.2305 89.6053 52.749 89.7496 52.2686C90.0376 51.3086 90.4216 50.4443 90.9016 49.6768C91.4136 48.9082 91.9896 48.2842 92.6296 47.8047C93.3016 47.3242 94.0056 47.085 94.7416 47.085C95.9257 47.085 96.7897 47.4365 97.3336 48.1406C97.8777 48.8125 98.1497 49.6768 98.1497 50.7324C98.1497 52.1729 97.7017 53.7402 96.8057 55.4365C95.9417 57.1006 94.6936 58.6523 93.0616 60.0928Q93.8536 60.9883 94.8447 61.4961Q96.1361 62.1562 97.7656 62.1562C99.2057 62.1562 100.71 61.7246 102.278 60.8604Q104.63 59.5166 106.694 56.7324C107.046 56.2842 107.334 55.8047 107.558 55.292C107.814 54.748 108.07 54.2207 108.326 53.708L109.238 53.9482C109.014 54.4287 108.774 54.9248 108.518 55.4365Q108.182 56.1562 107.654 56.877C106.086 59.1162 104.294 60.8125 102.278 61.9648C100.294 63.085 98.3896 63.6445 96.5657 63.6445C95.5416 63.6445 94.5817 63.4688 93.6857 63.1162C92.8217 62.7646 92.0696 62.2363 91.4297 61.5322C90.7897 60.8281 90.2776 59.9482 89.8937 58.8926C89.5852 58.0449 89.4008 57.0723 89.34 55.9766ZM219.465 55.9766C219.292 56.29 219.093 56.5898 218.868 56.877Q216.228 60.6201 212.868 62.7803C210.628 64.1885 208.404 64.8926 206.196 64.8926C204.82 64.8926 203.508 64.5723 202.26 63.9326Q200.388 63.0205 198.948 60.9561C198.82 60.7969 198.756 60.6523 198.756 60.5244C198.756 60.2363 198.948 60.0928 199.332 60.0928C199.364 60.0928 199.476 60.124 199.668 60.1885C199.924 60.1885 200.212 60.2842 200.532 60.4766C200.884 60.6367 201.38 60.7168 202.02 60.7168C203.012 60.7168 203.94 60.54 204.804 60.1885C205.668 59.8369 206.404 59.3887 207.012 58.8447C207.652 58.2686 208.148 57.6289 208.5 56.9248C208.852 56.1885 209.028 55.4365 209.028 54.6689Q209.028 53.5889 208.596 52.7246Q208.452 52.4365 208.26 52.1729C207.78 51.4688 206.948 51.1162 205.764 51.1162C204.548 51.1162 203.428 51.5488 202.404 52.4121C201.38 53.2441 200.452 54.2686 199.62 55.4844Q198.42 57.2607 197.556 59.2764C196.98 60.5889 196.548 61.7402 196.26 62.7324C196.1 63.2764 195.956 63.6123 195.828 63.7402C195.7 63.8682 195.556 63.9326 195.396 63.9326C195.073 63.9326 194.912 63.6504 194.912 63.0859C194.912 63.0342 194.913 62.9805 194.916 62.9248C194.916 62.6367 194.932 62.2842 194.964 61.8682C194.996 61.4521 195.028 61.0049 195.06 60.5244C195.06 60.0449 195.076 59.5645 195.108 59.084C195.14 58.5723 195.156 58.1084 195.156 57.6924C195.156 57.2715 195.153 56.832 195.148 56.375C195.044 56.542 194.936 56.709 194.825 56.877C193.193 59.3086 191.545 61.1162 189.881 62.3008C188.217 63.4844 186.665 64.0762 185.225 64.0762C183.401 64.0762 182.009 63.2129 181.049 61.4844C179.929 62.6045 178.665 63.4521 177.257 64.0283C175.881 64.6045 174.521 64.8926 173.177 64.8926C172.377 64.8926 171.609 64.7803 170.873 64.5566C170.169 64.332 169.561 63.9961 169.049 63.5488C168.505 63.0684 168.073 62.4766 167.753 61.7725C167.433 61.0361 167.273 60.1885 167.273 59.2285C167.273 58.0762 167.545 56.9082 168.089 55.7246C168.601 54.5088 169.321 53.4209 170.249 52.4609C171.209 51.4688 172.329 50.6523 173.609 50.0127C174.889 49.3721 176.281 49.0527 177.785 49.0527C179.001 49.0527 179.945 49.2285 180.617 49.5801C181.289 49.9004 181.625 50.2041 181.625 50.4922C181.625 50.6201 181.561 50.7168 181.433 50.7803C181.305 50.8447 181.193 50.877 181.097 50.877Q181.049 50.8281 181.001 50.8281L180.953 50.8281C180.569 50.4766 180.137 50.2041 179.657 50.0127C179.177 49.7881 178.473 49.6768 177.545 49.6768Q176.033 49.6768 174.74 50.209L174.739 50.209Q174.432 50.3359 174.137 50.4922C173.145 51.0049 172.297 51.6924 171.593 52.5566C170.889 53.3887 170.345 54.3164 169.961 55.3408C169.577 56.3643 169.385 57.3721 169.385 58.3643C169.385 60.2842 169.833 61.6768 170.729 62.54C171.625 63.4043 172.745 63.8369 174.089 63.8369C175.177 63.8369 176.313 63.5645 177.497 63.0205C178.681 62.4766 179.737 61.708 180.665 60.7168Q179.897 58.9883 179.897 56.2041Q179.897 54.3809 180.569 53.0361Q181.015 52.1445 181.715 51.8447Q182.069 51.6924 182.489 51.6924C183.641 51.6924 184.217 52.3643 184.217 53.708C184.217 55.0527 184.025 56.2686 183.641 57.3564C183.257 58.4121 182.745 59.3721 182.105 60.2363Q182.985 61.8711 184.318 62.4355Q185.021 62.7324 185.849 62.7324C187.065 62.7324 188.361 62.2207 189.737 61.1963C191.145 60.1729 192.521 58.6846 193.865 56.7324C194.185 56.2529 194.473 55.7568 194.729 55.2441L195.112 54.4785C195.098 53.9238 195.08 53.3467 195.06 52.748C194.996 50.8604 194.916 48.9248 194.82 46.9404Q194.676 43.916 194.58 40.9404Q194.484 37.9648 194.484 35.4688C194.484 34.1562 194.58 32.8926 194.772 31.6768Q195.06 29.8047 195.684 28.4121C196.1 27.4521 196.628 26.7002 197.268 26.1562C197.908 25.5801 198.66 25.292 199.524 25.292Q200.868 25.292 201.78 25.7725C202.42 26.0605 202.932 26.4922 203.316 27.0684C203.7 27.6123 203.972 28.2842 204.132 29.084C204.324 29.8525 204.42 30.7002 204.42 31.6289Q204.42 34.0283 203.748 36.9082C203.3 38.7969 202.708 40.7002 201.972 42.6201C201.236 44.54 200.388 46.3965 199.428 48.1885C198.5 49.9482 197.54 51.4844 196.548 52.7969Q196.644 54.2363 196.644 55.7725C196.676 56.7969 196.724 57.8848 196.788 59.0361C197.588 57.3086 198.468 55.8203 199.428 54.5723C199.844 54.0283 200.308 53.5 200.82 52.9883C201.364 52.4443 201.924 51.9648 202.5 51.5488C203.108 51.1328 203.748 50.7969 204.42 50.54C205.124 50.2842 205.86 50.1562 206.628 50.1562C207.844 50.1562 208.9 50.4609 209.796 51.0684C210.692 51.6768 211.14 52.6523 211.14 53.9961C211.14 55.2764 210.82 56.3643 210.18 57.2607C209.572 58.1562 208.804 58.9082 207.876 59.5166C206.948 60.0928 205.956 60.5244 204.9 60.8125C203.844 61.1006 202.884 61.2764 202.02 61.3408C201.956 61.3408 201.924 61.3564 201.924 61.3887C201.924 61.4521 201.972 61.5488 202.068 61.6768C202.708 62.4121 203.428 62.9404 204.228 63.2607Q204.805 63.4912 205.404 63.6113Q206.051 63.7402 206.724 63.7402C207.78 63.7402 208.852 63.5488 209.94 63.1641C211.028 62.748 212.068 62.2207 213.06 61.5801C214.052 60.9082 214.964 60.1562 215.796 59.3242C216.66 58.4609 217.364 57.5967 217.908 56.7324C218.228 56.2529 218.516 55.7568 218.772 55.2441L219.54 53.708L219.55 53.7109C219.622 53.2305 219.73 52.749 219.875 52.2686C220.163 51.3086 220.547 50.4443 221.027 49.6768Q221.795 48.5244 222.755 47.8047C223.427 47.3242 224.131 47.085 224.867 47.085Q226.353 47.085 227.167 47.8242Q227.326 47.9688 227.459 48.1406C228.003 48.8125 228.275 49.6768 228.275 50.7324Q228.275 52.8926 226.931 55.4365C226.067 57.1006 224.819 58.6523 223.187 60.0928C224.403 61.4688 225.971 62.1562 227.891 62.1562C229.331 62.1562 230.835 61.7246 232.403 60.8604Q234.755 59.5166 236.819 56.7324C237.171 56.2842 237.459 55.8047 237.683 55.292C237.939 54.748 238.195 54.2207 238.451 53.708L239.363 53.9482C239.139 54.4287 238.899 54.9248 238.643 55.4365C238.419 55.916 238.131 56.3965 237.779 56.877C236.211 59.1162 234.419 60.8125 232.403 61.9648C230.419 63.085 228.515 63.6445 226.691 63.6445C225.667 63.6445 224.707 63.4688 223.811 63.1162C222.947 62.7646 222.195 62.2363 221.555 61.5322C220.915 60.8281 220.403 59.9482 220.019 58.8926Q219.556 57.6201 219.465 55.9766ZM72.9508 32.4922C72.9508 30.6689 72.6467 29.2129 72.0388 28.124C71.4628 27.0049 70.4868 26.4443 69.1107 26.4443C68.6307 26.4443 68.1827 26.6045 67.7667 26.9248C67.3828 27.2129 67.0468 27.6123 66.7588 28.124C66.4707 28.6367 66.2467 29.2285 66.0868 29.9004C65.9268 30.5723 65.8468 31.292 65.8468 32.0605C65.8468 34.1729 65.8628 36.0928 65.8948 37.8203C65.9268 39.5488 65.9587 41.1807 65.9907 42.7168C66.0548 44.2529 66.1188 45.7402 66.1827 47.1807C66.2467 48.6201 66.3108 50.0928 66.3748 51.5967C67.3027 50.3486 68.1667 48.9248 68.9668 47.3242C69.7667 45.6924 70.4547 44.0283 71.0308 42.332C71.6388 40.6045 72.1028 38.8926 72.4227 37.1963C72.7748 35.5 72.9508 33.9326 72.9508 32.4922ZM203.076 32.4922C203.076 30.6689 202.772 29.2129 202.164 28.124C201.588 27.0049 200.612 26.4443 199.236 26.4443C198.756 26.4443 198.308 26.6045 197.892 26.9248C197.508 27.2129 197.172 27.6123 196.884 28.124C196.596 28.6367 196.372 29.2285 196.212 29.9004C196.052 30.5723 195.972 31.292 195.972 32.0605C195.972 34.1729 195.988 36.0928 196.02 37.8203Q196.068 40.4121 196.116 42.7168C196.18 44.2529 196.244 45.7402 196.308 47.1807C196.372 48.6201 196.436 50.0928 196.5 51.5967C197.428 50.3486 198.292 48.9248 199.092 47.3242C199.892 45.6924 200.58 44.0283 201.156 42.332C201.764 40.6045 202.228 38.8926 202.548 37.1963C202.9 35.5 203.076 33.9326 203.076 32.4922ZM139.351 61.6768C139.351 62.124 139.319 62.4443 139.255 62.6367C139.191 62.8281 139.015 62.9248 138.727 62.9248C138.087 62.9883 137.767 62.3486 137.767 61.0049C137.735 56.5889 137.687 52.5566 137.623 48.9082C137.591 45.2607 137.543 42.1084 137.479 39.4521Q137.431 35.4209 137.383 33.0684C137.351 31.5 137.335 30.6045 137.335 30.3809C137.335 30.124 137.415 29.9482 137.575 29.8525C137.735 29.7568 137.927 29.6768 138.151 29.6123C138.407 29.6123 138.599 29.6924 138.727 29.8525C138.887 30.0127 138.967 30.2041 138.967 30.4287C138.967 32.9883 138.983 35.6289 139.015 38.3486L139.111 46.4121C139.175 49.1006 139.223 51.7402 139.255 54.332C139.319 56.9248 139.351 59.3721 139.351 61.6768ZM18.224 43.916C18.224 41.9326 18.0959 40.2842 17.84 38.9727Q17.5193 37.0938 16.9362 37.0088Q16.9083 37.0049 16.88 37.0049C16.624 37.0049 16.384 37.1963 16.16 37.5801C15.936 37.9326 15.744 38.4443 15.584 39.1162C15.4561 39.7568 15.344 40.5244 15.248 41.4209Q15.152 42.7168 15.152 44.2529C15.152 46.0762 15.28 48.0449 15.536 50.1562C15.792 52.2363 16.24 54.2529 16.88 56.2041C17.328 54.1562 17.6641 52.0605 17.8881 49.916C18.1121 47.7402 18.224 45.7402 18.224 43.916ZM150.823 41.8525C149.639 41.8525 148.503 41.9805 147.415 42.2363Q145.831 42.6201 144.583 43.1484C143.783 43.5 143.127 43.8682 142.615 44.2529C142.135 44.6367 141.895 44.9727 141.895 45.2607C141.895 45.6445 142.343 45.8369 143.239 45.8369C144.775 45.8369 146.231 45.4688 147.607 44.7324C149.015 43.9961 150.279 43.0361 151.399 41.8525L150.823 41.8525ZM97.0936 50.9727C97.0936 50.1084 96.8696 49.4043 96.4216 48.8604C96.0056 48.2842 95.3176 47.9961 94.3577 47.9961C93.8456 47.9961 93.3816 48.1562 92.9656 48.4766C92.5497 48.7969 92.1976 49.2285 91.9097 49.7725C91.6216 50.2842 91.3976 50.8926 91.2377 51.5967C91.0776 52.3008 90.9977 53.0361 90.9977 53.8047C90.9977 55.0205 91.1256 56.1084 91.3816 57.0684C91.6697 57.9961 92.0696 58.8125 92.5817 59.5166C93.2537 58.9727 93.8616 58.3486 94.4056 57.6445C94.9496 56.9404 95.4136 56.2041 95.7976 55.4365C96.2136 54.6689 96.5337 53.9004 96.7577 53.1328C96.9817 52.3643 97.0936 51.6445 97.0936 50.9727ZM227.219 50.9727C227.219 50.1084 226.995 49.4043 226.547 48.8604C226.131 48.2842 225.443 47.9961 224.483 47.9961C223.971 47.9961 223.507 48.1562 223.091 48.4766C222.675 48.7969 222.323 49.2285 222.035 49.7725C221.747 50.2842 221.523 50.8926 221.363 51.5967Q221.123 52.6523 221.123 53.8047C221.123 55.0205 221.251 56.1084 221.507 57.0684C221.795 57.9961 222.195 58.8125 222.707 59.5166C223.379 58.9727 223.987 58.3486 224.531 57.6445C225.075 56.9404 225.539 56.2041 225.923 55.4365C226.339 54.6689 226.659 53.9004 226.883 53.1328C227.107 52.3643 227.219 51.6445 227.219 50.9727ZM53.3236 53.9961C53.3236 53.5166 53.2437 53.1328 53.0836 52.8447C52.9236 52.5244 52.6676 52.3643 52.3157 52.3643C51.7716 52.3643 51.3556 52.6367 51.0676 53.1807C50.8085 53.6416 50.6788 54.2188 50.6788 54.9131C50.6788 54.9902 50.6804 55.0684 50.6836 55.1484Q50.8276 57.6924 51.5956 59.4209C52.1396 58.6846 52.5557 57.8525 52.8436 56.9248C53.1636 55.9961 53.3236 55.0205 53.3236 53.9961ZM183.449 53.9961C183.449 53.5166 183.369 53.1328 183.209 52.8447C183.049 52.5244 182.793 52.3643 182.441 52.3643Q182.126 52.3643 181.869 52.4854Q181.458 52.6787 181.193 53.1807C180.933 53.6416 180.804 54.2188 180.804 54.9131Q180.804 55.0283 180.809 55.1484Q180.953 57.6924 181.721 59.4209C182.265 58.6846 182.681 57.8525 182.969 56.9248C183.289 55.9961 183.449 55.0205 183.449 53.9961Z" fill="#000000" fill-opacity="1.000000" fill-rule="evenodd"/>
</svg>
