<svg width="36.000000" height="36.000000" viewBox="0 0 36 36" fill="none" xmlns="http://www.w3.org/2000/svg" xmlns:xlink="http://www.w3.org/1999/xlink">
	<desc>
			Created with Pixso.
	</desc>
	<defs>
		<clipPath id="clip60_614">
			<rect id="basil:vk-outline" width="36.000000" height="36.000000" fill="white" fill-opacity="0"/>
		</clipPath>
	</defs>
	<rect id="basil:vk-outline" width="36.000000" height="36.000000" fill="#FFFFFF" fill-opacity="0"/>
	<g clip-path="url(#clip60_614)">
		<path id="Vector" d="M35.1074 25.2979C34.2915 23.6543 33.2163 22.1533 31.9231 20.8516C31.4905 20.3623 31.0376 19.8926 30.5654 19.4414L30.5085 19.3857C30.3333 19.2158 30.1602 19.043 29.9895 18.8682C31.7573 16.4102 33.2703 13.7783 34.5044 11.0127L34.554 10.9023L34.5884 10.7852C34.752 10.2402 34.938 9.20508 34.2781 8.26953C33.594 7.30371 32.5005 7.12988 31.7671 7.12988L28.3965 7.12988C27.6907 7.09766 26.9929 7.28906 26.4028 7.67773C25.8127 8.06641 25.3608 8.63184 25.1116 9.29199C24.3862 11.0195 23.478 12.665 22.4026 14.1992L22.4026 10.249C22.4026 9.73926 22.3545 8.88477 21.8069 8.16406C21.1531 7.30078 20.2065 7.12988 19.5496 7.12988L14.2004 7.12988C13.5024 7.11328 12.8252 7.36621 12.3086 7.83594C11.792 8.30566 11.4758 8.95605 11.4255 9.65234L11.4209 9.71973L11.4209 9.78711C11.4209 10.5146 11.709 11.0518 11.9399 11.3896C12.0435 11.541 12.1531 11.6787 12.2234 11.7656L12.2385 11.7852C12.3135 11.8789 12.363 11.9404 12.4126 12.0088C12.5444 12.1855 12.7319 12.4619 12.7859 13.1729L12.7859 15.3828C11.7122 13.584 10.8318 11.6777 10.1594 9.69434L10.1475 9.66113L10.1355 9.62988C9.95239 9.15137 9.65991 8.45508 9.07349 7.9248C8.3894 7.30176 7.57959 7.12988 6.84302 7.12988L3.4231 7.12988C2.67749 7.12988 1.77905 7.30371 1.1084 8.00977C0.449951 8.70605 0.375 9.54004 0.375 9.98047L0.375 10.1816L0.416992 10.377C1.36401 14.7734 3.31543 18.8906 6.11841 22.4072C7.40015 24.4277 9.13989 26.1182 11.197 27.3408C13.2539 28.5645 15.5703 29.2852 17.958 29.4453L18.0195 29.4492L18.0825 29.4492C19.1714 29.4492 20.3069 29.3545 21.1604 28.7861C22.311 28.0186 22.4026 26.8408 22.4026 26.2529L22.4026 24.5459C22.698 24.7861 23.064 25.1074 23.5125 25.5391C24.0554 26.082 24.4875 26.5527 24.8579 26.9639L25.0559 27.1826C25.344 27.5039 25.6274 27.8203 25.8855 28.0801C26.2095 28.4053 26.6101 28.7637 27.1111 29.0293C27.6555 29.3164 28.2271 29.4463 28.833 29.4463L32.2544 29.4463C32.9761 29.4463 34.0095 29.2754 34.7371 28.4326C35.5291 27.5146 35.469 26.3877 35.22 25.5791L35.175 25.4336L35.1074 25.2979ZM26.5276 25.4561C26.0625 24.9365 25.584 24.4297 25.092 23.9355L25.0874 23.9307C23.052 21.9688 22.1025 21.6289 21.4304 21.6289C21.072 21.6289 20.6775 21.667 20.4209 21.9883C20.3054 22.1416 20.2297 22.3213 20.2004 22.5107C20.1643 22.7305 20.1482 22.9531 20.1526 23.1768L20.1526 26.2529C20.1526 26.6357 20.0896 26.7959 19.9126 26.9131C19.677 27.0703 19.1746 27.1982 18.0959 27.1982C16.0474 27.0586 14.061 26.4346 12.3003 25.3779C10.5396 24.3213 9.05469 22.8623 7.96802 21.1201L7.95605 21.1006L7.94092 21.082C5.32959 17.832 3.50977 14.0195 2.625 9.94531C2.6311 9.75 2.6731 9.63184 2.74194 9.55957C2.8125 9.48438 2.98511 9.37988 3.4231 9.37988L6.84302 9.37988C7.22241 9.37988 7.42041 9.46387 7.56299 9.59082C7.72192 9.73828 7.86304 9.98535 8.03101 10.4268C8.87109 12.8955 10.0049 15.2051 11.0806 16.9023C11.6174 17.751 12.1455 18.457 12.6226 18.957C12.8611 19.2061 13.0935 19.4131 13.3169 19.5596C13.5315 19.7012 13.7759 19.8135 14.0281 19.8135C14.1599 19.8135 14.3145 19.7988 14.4629 19.7344C14.6233 19.6631 14.7554 19.541 14.8379 19.3857C14.9924 19.1035 15.0359 18.6885 15.0359 18.1436L15.0359 13.084C14.9565 11.8574 14.5859 11.166 14.2261 10.6758C14.1531 10.5771 14.0781 10.4805 14.001 10.3857L13.9814 10.3623C13.9175 10.2842 13.8564 10.2041 13.7986 10.1221C13.7246 10.0303 13.6802 9.91797 13.6709 9.80078C13.6829 9.68164 13.7397 9.57129 13.8301 9.49316C13.9204 9.41406 14.0374 9.37305 14.157 9.37793L19.5496 9.37793C19.8584 9.37793 19.9619 9.45312 20.0144 9.52344C20.0896 9.62109 20.1526 9.82324 20.1526 10.249L20.1526 17.041C20.1526 17.8486 20.5244 18.3945 21.0645 18.3945C21.6855 18.3945 22.134 18.0176 22.917 17.2354L22.9304 17.2197L22.9424 17.2061C24.699 15.0645 26.134 12.6787 27.2024 10.123L27.2085 10.1055C27.2888 9.87988 27.4407 9.68652 27.6411 9.55469C27.8416 9.42383 28.0793 9.36133 28.3186 9.37793L31.7686 9.37793C32.2366 9.37793 32.3894 9.49805 32.4404 9.56836C32.4929 9.64355 32.5305 9.80371 32.4404 10.1191C31.2085 12.873 29.6853 15.4883 27.897 17.9189L27.885 17.9365C27.7124 18.2021 27.522 18.4961 27.4951 18.832C27.4651 19.1953 27.6211 19.5244 27.8955 19.8779C28.095 20.1719 28.5076 20.5752 28.926 20.9854L28.9651 21.0244C29.4031 21.4531 29.8784 21.918 30.2595 22.3682L30.27 22.3789L30.2805 22.3906C31.4165 23.5234 32.3613 24.834 33.0779 26.2695C33.1919 26.6592 33.123 26.8604 33.033 26.9639C32.9294 27.084 32.697 27.1963 32.2561 27.1963L28.833 27.1963C28.5996 27.2021 28.3689 27.1475 28.1626 27.0391C27.9097 26.8916 27.6802 26.708 27.4814 26.4932C27.2671 26.2783 27.0344 26.0186 26.7495 25.7021L26.5291 25.4561L26.5276 25.4561Z" fill="#FFF9F4" fill-opacity="1.000000" fill-rule="evenodd"/>
	</g>
</svg>
