<svg width="36.000000" height="36.000000" viewBox="0 0 36 36" fill="none" xmlns="http://www.w3.org/2000/svg" xmlns:xlink="http://www.w3.org/1999/xlink">
	<desc>
			Created with Pixso.
	</desc>
	<defs>
		<clipPath id="clip60_605">
			<rect id="basil:instagram-outline" width="36.000000" height="36.000000" fill="white" fill-opacity="0"/>
		</clipPath>
	</defs>
	<rect id="basil:instagram-outline" width="36.000000" height="36.000000" fill="#FFFFFF" fill-opacity="0"/>
	<g clip-path="url(#clip60_605)">
		<path id="Vector" d="M24 10.5C24 10.1025 24.158 9.7207 24.4395 9.43945C24.7207 9.1582 25.1023 9 25.5 9C25.8977 9 26.2793 9.1582 26.5605 9.43945C26.842 9.7207 27 10.1025 27 10.5C27 10.8975 26.842 11.2793 26.5605 11.5605C26.2793 11.8418 25.8977 12 25.5 12C25.1023 12 24.7207 11.8418 24.4395 11.5605C24.158 11.2793 24 10.8975 24 10.5Z" fill="#FFF9F4" fill-opacity="1.000000" fill-rule="nonzero"/>
		<path id="Vector" d="M18 10.875C16.1104 10.875 14.2981 11.626 12.9619 12.9619C11.6257 14.2979 10.875 16.1104 10.875 18C10.875 19.8896 11.6257 21.7021 12.9619 23.0381C14.2981 24.374 16.1104 25.125 18 25.125C19.8896 25.125 21.7019 24.374 23.0381 23.0381C24.3743 21.7021 25.125 19.8896 25.125 18C25.125 16.1104 24.3743 14.2979 23.0381 12.9619C21.7019 11.626 19.8896 10.875 18 10.875ZM13.125 18C13.125 16.707 13.6387 15.4668 14.5527 14.5527C15.467 13.6387 16.707 13.125 18 13.125C19.293 13.125 20.533 13.6387 21.4473 14.5527C22.3613 15.4668 22.875 16.707 22.875 18C22.875 19.293 22.3613 20.5332 21.4473 21.4473C20.533 22.3613 19.293 22.875 18 22.875C16.707 22.875 15.467 22.3613 14.5527 21.4473C13.6387 20.5332 13.125 19.293 13.125 18Z" fill="#FFF9F4" fill-opacity="1.000000" fill-rule="evenodd"/>
		<path id="Vector" d="M25.887 4.24805C20.645 3.66699 15.355 3.66699 10.113 4.24805C7.09497 4.58594 4.65747 6.96289 4.30347 9.99609C3.68164 15.3135 3.68164 20.6846 4.30347 26.001C4.65747 29.0342 7.09351 31.4121 10.113 31.749C15.355 32.3301 20.645 32.3301 25.887 31.749C28.905 31.4121 31.3425 29.0342 31.6965 26.001C32.3186 20.6846 32.3186 15.3135 31.6965 9.99609C31.3425 6.96289 28.9065 4.58594 25.887 4.24805ZM10.3621 6.4834C15.4385 5.9209 20.5615 5.9209 25.6382 6.4834C27.6331 6.70801 29.2305 8.28223 29.4631 10.2588C30.0645 15.4014 30.0645 20.5967 29.4631 25.7393C29.3428 26.7061 28.8999 27.6055 28.2058 28.29C27.5117 28.9746 26.6072 29.4053 25.6382 29.5127C20.5615 30.0752 15.4385 30.0752 10.3621 29.5127C9.39307 29.4053 8.48828 28.9746 7.79443 28.29C7.10034 27.6055 6.65723 26.7061 6.53711 25.7393C5.93555 20.5967 5.93555 15.4014 6.53711 10.2588C6.65723 9.29102 7.10034 8.39258 7.79443 7.70801C8.48828 7.02246 9.39307 6.59082 10.3621 6.4834Z" fill="#FFF9F4" fill-opacity="1.000000" fill-rule="evenodd"/>
	</g>
</svg>
