<svg width="8.884277" height="6.047852" viewBox="0 0 8.88428 6.04785" fill="none" xmlns="http://www.w3.org/2000/svg" xmlns:xlink="http://www.w3.org/1999/xlink">
	<desc>
			Created with Pixso.
	</desc>
	<defs/>
	<path id="Vector" d="M3.50317 6.04785C3.41565 6.04785 3.32898 6.03027 3.24817 5.99707C3.16724 5.96387 3.09375 5.91504 3.03186 5.85254L0.203857 3.02441C0.140137 2.96289 0.0893555 2.88867 0.0543213 2.80762C0.0192871 2.72656 0.000854492 2.63867 0 2.55078C-0.000854492 2.46191 0.0159912 2.37402 0.0494385 2.29199C0.0828857 2.20996 0.132324 2.13574 0.194946 2.07324C0.257446 2.01074 0.331909 1.96094 0.413818 1.92773C0.495728 1.89355 0.583496 1.87695 0.671997 1.87793C0.760498 1.87793 0.848022 1.89648 0.929321 1.93164C1.01074 1.9668 1.08435 2.01758 1.14587 2.08105L3.50256 4.4375L7.74585 0.195312C7.87085 0.0703125 8.04041 0 8.21729 0C8.39417 0 8.56372 0.0703125 8.68884 0.195312C8.81396 0.320312 8.88428 0.489258 8.88428 0.666992C8.8844 0.84375 8.81421 1.0127 8.68921 1.1377L3.97449 5.85254C3.9126 5.91504 3.83911 5.96387 3.7583 5.99707C3.67737 6.03027 3.5907 6.04785 3.50317 6.04785Z" fill="#FFF9F4" fill-opacity="1.000000" fill-rule="nonzero"/>
</svg>
