<svg width="60.000000" height="60.000000" viewBox="0 0 60 60" fill="none" xmlns="http://www.w3.org/2000/svg" xmlns:xlink="http://www.w3.org/1999/xlink">
	<desc>
			Created with Pixso.
	</desc>
	<defs>
		<clipPath id="clip51_211">
			<rect id="solar:chef-hat-heart-line-duotone" width="24.000000" height="24.000000" transform="translate(18.000000 18.000000)" fill="white" fill-opacity="0"/>
		</clipPath>
	</defs>
	<circle id="Ellipse 3" cx="30.000000" cy="30.000000" r="29.500000" stroke="#312C27" stroke-opacity="1.000000" stroke-width="1.000000"/>
	<rect id="solar:chef-hat-heart-line-duotone" width="24.000000" height="24.000000" transform="translate(18.000000 18.000000)" fill="#FFFFFF" fill-opacity="0"/>
	<g clip-path="url(#clip51_211)">
		<path id="Vector" d="M23 32.584L23.75 32.584C23.75 32.4385 23.7075 32.2959 23.6274 32.1738C23.5474 32.0518 23.4336 31.9551 23.2998 31.8975L23 32.584ZM37 32.584L36.7002 31.8975C36.5664 31.9551 36.4526 32.0518 36.3726 32.1738C36.2925 32.2959 36.25 32.4385 36.25 32.584L37 32.584ZM33.75 25C33.75 25.1992 33.8291 25.3896 33.9697 25.5303C34.1104 25.6709 34.3013 25.75 34.5 25.75C34.6987 25.75 34.8896 25.6709 35.0303 25.5303C35.1709 25.3896 35.25 25.1992 35.25 25L33.75 25ZM24.75 25C24.75 25.1992 24.8291 25.3896 24.9697 25.5303C25.1104 25.6709 25.3013 25.75 25.5 25.75C25.6987 25.75 25.8896 25.6709 26.0303 25.5303C26.1709 25.3896 26.25 25.1992 26.25 25L24.75 25ZM25 22.25C23.4751 22.25 22.0127 22.8555 20.9341 23.9346C19.856 25.0127 19.25 26.4746 19.25 28L20.75 28C20.75 26.873 21.1978 25.792 21.9946 24.9951C22.792 24.1982 23.873 23.75 25 23.75L25 22.25ZM35 23.75C36.127 23.75 37.208 24.1982 38.0054 24.9951C38.8022 25.792 39.25 26.873 39.25 28L40.75 28C40.75 26.4746 40.144 25.0127 39.0659 23.9346C37.9873 22.8555 36.5249 22.25 35 22.25L35 23.75ZM33 39.25L27 39.25L27 40.75L33 40.75L33 39.25ZM27 39.25C26.0361 39.25 25.3882 39.248 24.9048 39.1826C24.4438 39.1211 24.2461 39.0137 24.1162 38.8828L23.0562 39.9453C23.5112 40.4004 24.0781 40.585 24.7061 40.6699C25.312 40.752 26.0781 40.75 27 40.75L27 39.25ZM22.25 36C22.25 36.9219 22.248 37.6885 22.3301 38.2939C22.4141 38.9219 22.6001 39.4893 23.0552 39.9443L24.1162 38.8838C23.9858 38.7539 23.8789 38.5557 23.8159 38.0938C23.752 37.6123 23.75 36.9639 23.75 36L22.25 36ZM36.25 36C36.25 36.9639 36.248 37.6123 36.1831 38.0947C36.1211 38.5557 36.0142 38.7539 35.8828 38.8838L36.9448 39.9443C37.3999 39.4893 37.585 38.9219 37.6699 38.2939C37.752 37.6885 37.75 36.9219 37.75 36L36.25 36ZM33 40.75C33.9219 40.75 34.688 40.752 35.2939 40.6699C35.9219 40.5859 36.4902 40.4004 36.9448 39.9443L35.8838 38.8838C35.7539 39.0137 35.5562 39.1211 35.0942 39.1836C34.6118 39.248 33.9639 39.25 33 39.25L33 40.75ZM25 23.75C25.2139 23.75 25.4229 23.7656 25.6279 23.7959L25.8472 22.3115C25.5664 22.2705 25.2837 22.25 25 22.25L25 23.75ZM30 19.25C28.9028 19.25 27.833 19.5938 26.9414 20.2324C26.0493 20.8721 25.3799 21.7744 25.0269 22.8135L26.4468 23.2949C26.6992 22.5527 27.1772 21.9082 27.8145 21.4521C28.4521 20.9951 29.2163 20.75 30 20.75L30 19.25ZM25.0269 22.8135C24.8433 23.3564 24.7495 23.9268 24.75 24.5L26.25 24.5C26.25 24.0771 26.3198 23.6719 26.4482 23.2949L25.0269 22.8135ZM35 22.25C34.7129 22.25 34.4302 22.2715 34.1528 22.3115L34.373 23.7959C34.5806 23.7656 34.79 23.75 35 23.75L35 22.25ZM30 20.75C30.7837 20.75 31.5479 20.9961 32.1846 21.4521C32.8218 21.9082 33.2998 22.5527 33.5518 23.2949L34.9722 22.8135C34.6191 21.7744 33.9502 20.8721 33.0581 20.2334C32.1665 19.5938 31.0972 19.25 30 19.25L30 20.75ZM33.5518 23.2949C33.6802 23.6719 33.75 24.0771 33.75 24.5L35.25 24.5C35.25 23.9111 35.1519 23.3438 34.9722 22.8135L33.5532 23.2949L33.5518 23.2949ZM23.75 36L23.75 32.584L22.25 32.584L22.25 36L23.75 36ZM23.2998 31.8975C22.542 31.5664 21.897 31.0205 21.4438 30.3291C20.9907 29.6367 20.75 28.8271 20.75 28L19.25 28C19.25 29.1191 19.5762 30.2139 20.189 31.1494C20.8018 32.0859 21.6743 32.8232 22.7002 33.2715L23.2998 31.8975ZM36.25 32.584L36.25 36L37.75 36L37.75 32.584L36.25 32.584ZM39.25 28C39.25 28.8271 39.0093 29.6367 38.5562 30.3291C38.103 31.0205 37.458 31.5664 36.7002 31.8975L37.2998 33.2715C38.3257 32.8232 39.1982 32.0859 39.811 31.1494C40.4238 30.2139 40.75 29.1191 40.75 28L39.25 28ZM33.75 24.5L33.75 25L35.25 25L35.25 24.5L33.75 24.5ZM24.75 24.5L24.75 25L26.25 25L26.25 24.5L24.75 24.5Z" fill="#1F1711" fill-opacity="1.000000" fill-rule="nonzero"/>
		<g opacity="0.700000">
			<path id="Vector" d="M30 27.9951L29.481 28.5371C29.6206 28.6709 29.8066 28.7461 30 28.7461C30.1934 28.7461 30.3794 28.6709 30.519 28.5371L30 27.9951ZM29.4858 31.0645C29.0688 30.7578 28.6079 30.374 28.2588 29.9717C27.8911 29.5459 27.75 29.2148 27.75 29L26.25 29C26.25 29.7705 26.6909 30.4512 27.125 30.9531C27.5781 31.4775 28.1392 31.9365 28.5991 32.2734L29.4858 31.0645ZM27.75 29C27.75 28.4238 28.0132 28.1738 28.2422 28.0928C28.4922 28.0049 28.9561 28.0332 29.4819 28.5371L30.519 27.4531C29.6938 26.6631 28.6582 26.3584 27.7461 26.6777C26.812 27.0049 26.25 27.9033 26.25 29L27.75 29ZM31.3999 32.2744C31.8599 31.9365 32.4219 31.4775 32.875 30.9531C33.3091 30.4512 33.75 29.7705 33.75 29L32.25 29C32.25 29.2148 32.1089 29.5459 31.7402 29.9717C31.3921 30.375 30.9312 30.7578 30.5142 31.0645L31.4009 32.2744L31.3999 32.2744ZM33.75 29C33.75 27.9033 33.187 27.0049 32.2539 26.6777C31.3418 26.3584 30.3062 26.6641 29.481 27.4531L30.519 28.5371C31.0439 28.0332 31.5078 28.0049 31.7588 28.0928C31.9868 28.1729 32.25 28.4238 32.25 29L33.75 29ZM28.6001 32.2744C28.9678 32.5439 29.3818 32.8809 30 32.8809L30 31.3809C29.9761 31.3809 29.96 31.3809 29.9058 31.3525C29.7603 31.2646 29.6196 31.1689 29.4858 31.0645L28.5991 32.2744L28.6001 32.2744ZM30.5142 31.0645C30.3804 31.1689 30.2397 31.2646 30.0942 31.3525C30.04 31.3809 30.0239 31.3809 30 31.3809L30 32.8809C30.6182 32.8809 31.0322 32.5439 31.3999 32.2744L30.5142 31.0645Z" fill="#1F1711" fill-opacity="1.000000" fill-rule="nonzero"/>
		</g>
		<g opacity="0.700000">
			<path id="Vector" d="M23 36L37 36" stroke="#1F1711" stroke-opacity="1.000000" stroke-width="1.500000" stroke-linejoin="round" stroke-linecap="round"/>
		</g>
	</g>
</svg>
