<svg width="24.000000" height="24.000000" viewBox="0 0 24 24" fill="none" xmlns="http://www.w3.org/2000/svg" xmlns:xlink="http://www.w3.org/1999/xlink">
	<desc>
			Created with Pixso.
	</desc>
	<defs>
		<clipPath id="clip41_320">
			<rect id="basil:instagram-outline" width="24.000000" height="24.000000" fill="white" fill-opacity="0"/>
		</clipPath>
	</defs>
	<rect id="basil:instagram-outline" width="24.000000" height="24.000000" fill="#FFFFFF" fill-opacity="0"/>
	<g clip-path="url(#clip41_320)">
		<path id="Vector" d="M16 7C16 6.73438 16.1055 6.48047 16.293 6.29297C16.4805 6.10547 16.7349 6 17 6C17.2651 6 17.5195 6.10547 17.707 6.29297C17.8945 6.48047 18 6.73438 18 7C18 7.26562 17.8945 7.51953 17.707 7.70703C17.5195 7.89453 17.2651 8 17 8C16.7349 8 16.4805 7.89453 16.293 7.70703C16.1055 7.51953 16 7.26562 16 7Z" fill="#CEAAD0" fill-opacity="1.000000" fill-rule="nonzero"/>
		<path id="Vector" d="M12 7.25C10.7402 7.25 9.53198 7.75 8.64136 8.6416C7.75049 9.53223 7.25 10.7402 7.25 12C7.25 13.2598 7.75049 14.4678 8.64136 15.3584C9.53198 16.25 10.7402 16.75 12 16.75C13.2598 16.75 14.468 16.25 15.3586 15.3584C16.2495 14.4678 16.75 13.2598 16.75 12C16.75 10.7402 16.2495 9.53223 15.3586 8.6416C14.468 7.75 13.2598 7.25 12 7.25ZM8.75 12C8.75 11.1377 9.09253 10.3115 9.7019 9.70215C10.3113 9.09277 11.1379 8.75 12 8.75C12.8621 8.75 13.6887 9.09277 14.2981 9.70215C14.9075 10.3115 15.25 11.1377 15.25 12C15.25 12.8623 14.9075 13.6885 14.2981 14.2979C13.6887 14.9072 12.8621 15.25 12 15.25C11.1379 15.25 10.3113 14.9072 9.7019 14.2979C9.09253 13.6885 8.75 12.8623 8.75 12Z" fill="#CEAAD0" fill-opacity="1.000000" fill-rule="evenodd"/>
		<path id="Vector" d="M17.2581 2.83301C13.7634 2.44531 10.2366 2.44531 6.74194 2.83301C4.72998 3.05762 3.10498 4.64258 2.86914 6.66406C2.45435 10.209 2.45435 13.79 2.86914 17.335C3.10498 19.3564 4.729 20.9414 6.74194 21.167C10.2368 21.5537 13.7634 21.5537 17.2581 21.167C19.27 20.9414 20.895 19.3564 21.1311 17.335C21.5457 13.79 21.5457 10.209 21.1311 6.66406C20.895 4.64258 19.271 3.05762 17.2581 2.83301ZM6.90796 4.32227C10.2925 3.94727 13.7078 3.94727 17.092 4.32227C18.4221 4.47266 19.4871 5.52148 19.6421 6.83984C20.043 10.2676 20.043 13.7314 19.6421 17.1592C19.5618 17.8047 19.2666 18.4033 18.804 18.8604C18.3413 19.3164 17.738 19.6045 17.092 19.6758C13.7078 20.0508 10.2922 20.0508 6.90796 19.6758C6.26196 19.6045 5.65894 19.3164 5.19629 18.8604C4.7334 18.4033 4.43823 17.8047 4.35815 17.1592C3.95703 13.7314 3.95703 10.2676 4.35815 6.83984C4.43823 6.19434 4.7334 5.5957 5.19629 5.13867C5.65894 4.68262 6.26196 4.39453 6.90796 4.32227Z" fill="#CEAAD0" fill-opacity="1.000000" fill-rule="evenodd"/>
	</g>
</svg>
