<svg width="174.217285" height="60.000000" viewBox="0 0 174.217 60" fill="none" xmlns="http://www.w3.org/2000/svg" xmlns:xlink="http://www.w3.org/1999/xlink">
	<desc>
			Created with Pixso.
	</desc>
	<defs/>
	<rect id="logo" width="174.217178" height="60.000000" fill="#FFFFFF" fill-opacity="0"/>
	<path id="&amp;" d="M94.4649 49.6504C92.4908 47.9518 90.5856 46.1384 88.7493 44.2102C86.9588 42.2361 85.2831 40.2161 83.7223 38.1502C82.2073 36.0844 80.807 33.9955 79.5216 31.8837C78.2821 29.726 77.2262 27.6142 76.3539 25.5483C74.793 27.2469 73.2321 28.9685 71.6712 30.713C70.1562 32.4116 68.8019 34.1332 67.6082 35.8778C66.4146 37.5764 65.4505 39.298 64.716 41.0425C63.9355 42.7411 63.5453 44.4398 63.5453 46.1384C63.5453 48.1584 63.8896 49.9029 64.5783 51.372C65.221 52.7952 66.0933 53.9658 67.1951 54.884C68.2969 55.8022 69.5594 56.4679 70.9825 56.8811C72.4057 57.2942 73.8748 57.5008 75.3898 57.5008C78.4198 57.5008 81.6334 56.7892 85.0307 55.3661C88.4279 53.9429 91.5727 52.0377 94.4649 49.6504ZM85.9259 8.8145C85.9259 7.20768 85.5586 6.05996 84.8241 5.37133C84.1354 4.63679 83.3779 4.26952 82.5516 4.26952C81.8629 4.26952 81.1284 4.49907 80.3479 4.95815C79.6134 5.41724 78.9248 6.08292 78.2821 6.95519C77.6852 7.78155 77.1802 8.79154 76.7671 9.98517C76.3539 11.1788 76.1473 12.4872 76.1473 13.9104C76.1473 16.5272 76.6293 19.3047 77.5934 22.2428C78.7411 21.0492 79.82 19.8785 80.83 18.7308C81.84 17.5831 82.7122 16.4583 83.4468 15.3565C84.2272 14.2088 84.8241 13.107 85.2372 12.0511C85.6963 10.9493 85.9259 9.8704 85.9259 8.8145ZM112.438 59.0847C112.438 59.2224 112.346 59.3601 112.163 59.4979C111.979 59.6356 111.704 59.7045 111.336 59.7045C108.582 58.8322 105.873 57.6156 103.211 56.0547C100.548 54.4479 97.954 52.5886 95.429 50.4768C93.6845 51.8081 91.8711 53.0247 89.9888 54.1265C88.1065 55.2283 86.1784 56.1695 84.2043 56.9499C82.2761 57.7304 80.325 58.3272 78.3509 58.7404C76.4227 59.1535 74.5634 59.3601 72.773 59.3601C71.0285 59.3601 69.3757 59.1076 67.8148 58.6026C66.2539 58.1436 64.8996 57.432 63.7519 56.4679C62.6042 55.4579 61.709 54.2183 61.0662 52.7493C60.3776 51.2802 60.0333 49.5586 60.0333 47.5845C60.0333 45.4727 60.5153 43.4068 61.4794 41.3868C62.4435 39.3209 63.683 37.3009 65.198 35.3269C66.713 33.3528 68.3887 31.4246 70.2251 29.5423C72.1073 27.6601 73.9437 25.8237 75.7341 24.0333C74.4028 20.4524 73.7371 17.2158 73.7371 14.3236C73.7371 12.6249 74.0355 11.064 74.6323 9.64085C75.275 8.21768 76.0784 7.0011 77.0425 5.9911C78.0066 4.98111 79.0625 4.20066 80.2102 3.64975C81.4039 3.05294 82.5286 2.75453 83.5845 2.75453C84.8241 2.75453 85.9488 3.16771 86.9588 3.99407C87.9688 4.77452 88.4738 6.08292 88.4738 7.91927C88.4738 9.06699 88.1754 10.2606 87.5786 11.5002C87.0277 12.7397 86.2702 14.0252 85.3061 15.3565C84.3879 16.642 83.2861 17.9963 82.0007 19.4194C80.7611 20.7967 79.4527 22.2199 78.0755 23.689C79.5905 27.8667 81.84 32.1132 84.8241 36.4287C87.854 40.6982 91.5267 44.6923 95.8422 48.4109C98.1835 46.2991 100.066 43.9807 101.489 41.4557C102.912 38.9307 103.624 36.2909 103.624 33.5364C103.624 32.6182 103.486 31.7001 103.211 30.7819C102.981 29.8178 102.499 28.8078 101.764 27.7519C101.764 27.6601 101.902 27.5683 102.178 27.4764C102.453 27.3387 102.706 27.2699 102.935 27.2699C103.578 27.2699 104.083 27.4994 104.45 27.9585C104.863 28.3717 105.162 28.8767 105.345 29.4735C105.575 30.0703 105.713 30.6901 105.758 31.3328C105.85 31.9296 105.896 32.4116 105.896 32.7789C105.896 35.8089 105.047 38.7471 103.348 41.5934C101.696 44.3939 99.5378 46.9647 96.8751 49.3061C101.328 53.1165 106.355 56.2154 111.956 58.6026C112.278 58.7863 112.438 58.947 112.438 59.0847Z" fill="#FFA55C" fill-opacity="1.000000" fill-rule="evenodd"/>
	<path id="Wake Bake" d="M13.9085 34.5024C13.9085 33.0682 13.8159 31.8769 13.6309 30.9285C13.4689 29.98 13.2376 29.5058 12.9369 29.5058C12.7518 29.5058 12.5783 29.6446 12.4164 29.9222C12.2545 30.1767 12.1157 30.5468 12 31.0326C11.9075 31.4952 11.8265 32.0504 11.7571 32.6981C11.7109 33.3227 11.6877 34.0051 11.6877 34.7453C11.6877 36.0639 11.7803 37.4865 11.9653 39.0133C12.1504 40.5169 12.4742 41.9743 12.9369 43.3854C13.2608 41.9049 13.5036 40.3897 13.6656 38.8398C13.8275 37.2668 13.9085 35.821 13.9085 34.5024ZM28.4473 18.7492C28.4473 18.8648 28.401 18.9574 28.3085 19.0268C28.216 19.0961 28.1003 19.1771 27.9615 19.2696C27.2675 19.686 26.7008 20.2643 26.2613 21.0046C25.8217 21.7448 25.4632 22.5545 25.1856 23.4335C24.9311 24.3125 24.7576 25.2147 24.6651 26.14C24.5726 27.0422 24.5263 27.875 24.5263 28.6383C24.5263 29.1704 24.5495 29.8297 24.5957 30.6162C24.6651 31.3795 24.7345 32.2239 24.8039 33.1492C24.8964 34.0745 24.9658 35.0576 25.0121 36.0986C25.0815 37.1164 25.1162 38.1574 25.1162 39.2215C25.1162 40.7251 25.0237 42.1825 24.8386 43.5935C24.6767 45.0046 24.3413 46.2654 23.8323 47.3757C23.3466 48.4861 22.6641 49.3767 21.7851 50.0475C20.9061 50.7184 19.761 51.0538 18.3499 51.0538C17.7022 51.0538 17.0892 50.9266 16.5109 50.6721C15.9557 50.4408 15.4352 50.1054 14.9494 49.6658C14.4868 49.2263 14.0588 48.7174 13.6656 48.1391C13.2955 47.5608 12.96 46.9246 12.6593 46.2307C12.3586 47.0403 12 47.7921 11.5836 48.4861C11.1904 49.1801 10.7509 49.7815 10.2651 50.2904C9.7793 50.7993 9.24725 51.1926 8.66894 51.4702C8.09063 51.7478 7.47761 51.8866 6.8299 51.8866C5.8352 51.8866 4.99086 51.6321 4.29688 51.1232C3.62604 50.6143 3.07086 49.9434 2.63134 49.1107C2.19182 48.301 1.84483 47.3757 1.59037 46.3348C1.35905 45.2707 1.18555 44.195 1.06989 43.1078C0.954226 41.9974 0.873262 40.9217 0.826997 39.8808C0.803864 38.8167 0.780732 37.8798 0.757599 37.0702C0.711334 35.6128 0.734467 34.2364 0.826997 32.941C0.94266 31.6224 1.06989 30.4427 1.20868 29.4017C1.34748 28.3376 1.48628 27.4239 1.62507 26.6605C1.76387 25.8971 1.8564 25.3304 1.90266 24.9603C1.92579 24.8215 2.06459 24.7289 2.31905 24.6827C2.59664 24.6364 2.83953 24.6133 3.04772 24.6133C3.20965 24.6133 3.34845 24.6364 3.46411 24.6827C3.57977 24.7058 3.6376 24.7752 3.6376 24.8909C3.6376 25.0297 3.57977 25.2725 3.46411 25.6195C3.34845 25.9434 3.17495 26.568 2.94363 27.4933C2.8511 27.9097 2.747 28.5111 2.63134 29.2976C2.53881 30.061 2.44628 30.9285 2.35375 31.9C2.28435 32.8716 2.22652 33.9126 2.18025 35.0229C2.13399 36.1102 2.11085 37.1743 2.11085 38.2152C2.11085 39.0249 2.14555 39.9155 2.21495 40.887C2.28435 41.8355 2.40001 42.7839 2.56194 43.7323C2.72387 44.6576 2.94363 45.5598 3.22122 46.4389C3.49881 47.3179 3.83423 48.0928 4.22749 48.7637C4.64387 49.4345 5.12966 49.9666 5.68484 50.3598C6.24002 50.7762 6.88773 50.9844 7.62797 50.9844C8.18316 50.9844 8.69207 50.8456 9.15472 50.568C9.61738 50.2904 10.0453 49.8972 10.4386 49.3883C10.8318 48.9025 11.1788 48.3242 11.4795 47.6533C11.8034 46.9825 12.0926 46.2538 12.347 45.4673C11.815 44.0099 11.4217 42.46 11.1673 40.8176C10.9128 39.1752 10.7856 37.66 10.7856 36.2721C10.7856 35.2542 10.8203 34.248 10.8897 33.2533C10.9822 32.2586 11.1094 31.368 11.2714 30.5815C11.4333 29.795 11.6415 29.1588 11.8959 28.673C12.1504 28.1873 12.4511 27.9444 12.7981 27.9444C13.0757 27.9444 13.3186 28.1179 13.5268 28.4648C13.7581 28.8118 13.9432 29.286 14.082 29.8875C14.2439 30.4889 14.3596 31.2061 14.429 32.0388C14.5215 32.8485 14.5677 33.7275 14.5677 34.6759C14.5677 36.2027 14.4636 37.8104 14.2555 39.4991C14.0473 41.1646 13.7234 42.7955 13.2839 44.3916C13.5846 45.2013 13.9316 45.9531 14.3249 46.647C14.7181 47.3179 15.1576 47.9078 15.6434 48.4167C16.1523 48.9256 16.7075 49.3189 17.309 49.5964C17.9335 49.8972 18.6159 50.0475 19.3562 50.0475C20.374 50.0475 21.2068 49.7931 21.8545 49.2842C22.5022 48.7984 23.0111 48.1275 23.3813 47.2716C23.7514 46.3926 24.0058 45.3863 24.1446 44.2528C24.2834 43.0962 24.3528 41.8586 24.3528 40.54C24.3528 39.3603 24.3066 38.1458 24.214 36.8967C24.1446 35.6475 24.0637 34.4099 23.9711 33.1839C23.8786 31.9347 23.7861 30.7318 23.6935 29.5752C23.6241 28.3954 23.5895 27.3082 23.5895 26.3135C23.5895 25.5964 23.6935 24.7636 23.9017 23.8152C24.1331 22.8668 24.4338 21.9762 24.8039 21.1434C25.1972 20.2875 25.6367 19.5704 26.1225 18.9921C26.6314 18.3906 27.1634 18.0899 27.7186 18.0899C27.8805 18.0899 28.0425 18.1708 28.2044 18.3328C28.3663 18.4716 28.4473 18.6104 28.4473 18.7492ZM39.2817 41.7892C39.2817 41.4422 39.2239 41.1646 39.1082 40.9564C38.9926 40.7251 38.8075 40.6094 38.5531 40.6094C38.1598 40.6094 37.8591 40.8061 37.6509 41.1993C37.4427 41.5694 37.3502 42.0437 37.3733 42.622C37.4427 43.848 37.6625 44.8774 38.0326 45.7102C38.4258 45.1781 38.7266 44.5767 38.9347 43.9058C39.1661 43.235 39.2817 42.5294 39.2817 41.7892ZM48.6504 41.7545C48.4885 42.1015 48.315 42.46 48.1299 42.8302C47.9449 43.1772 47.7367 43.5241 47.5054 43.8711C46.3256 45.6292 45.1343 46.9362 43.9314 47.7921C42.7285 48.648 41.6066 49.076 40.5656 49.076C39.247 49.076 38.2408 48.4514 37.5468 47.2022C36.7372 48.0119 35.8234 48.6249 34.8056 49.0413C33.8109 49.4576 32.8278 49.6658 31.8562 49.6658C31.2779 49.6658 30.7227 49.5849 30.1906 49.423C29.6817 49.261 29.2422 49.0181 28.8721 48.6943C28.4788 48.3473 28.1665 47.9193 27.9352 47.4104C27.7039 46.8784 27.5882 46.2654 27.5882 45.5714C27.5882 44.7386 27.7848 43.8943 28.1781 43.0384C28.5482 42.1593 29.0687 41.3728 29.7396 40.6788C30.4335 39.9617 31.2432 39.3718 32.1685 38.9092C33.0938 38.4465 34.1 38.2152 35.1873 38.2152C36.0663 38.2152 36.7487 38.3424 37.2345 38.5969C37.7203 38.8282 37.9632 39.048 37.9632 39.2562C37.9632 39.3487 37.9169 39.4181 37.8244 39.4644C37.7319 39.5106 37.6509 39.5338 37.5815 39.5338C37.5584 39.5106 37.5352 39.4991 37.5121 39.4991L37.4774 39.4991C37.1998 39.2446 36.8875 39.048 36.5405 38.9092C36.1935 38.7473 35.6846 38.6663 35.0138 38.6663C34.1116 38.6663 33.2904 38.8629 32.5502 39.2562C31.833 39.6263 31.22 40.1237 30.7111 40.7482C30.2022 41.3497 29.8089 42.0205 29.5314 42.7608C29.2538 43.501 29.115 44.2297 29.115 44.9468C29.115 46.3348 29.4388 47.341 30.0865 47.9656C30.7343 48.5902 31.5439 48.9025 32.5155 48.9025C33.302 48.9025 34.1232 48.7058 34.9791 48.3126C35.835 47.9193 36.5984 47.3642 37.2692 46.647C36.8991 45.8143 36.714 44.727 36.714 43.3854C36.714 42.5063 36.8759 41.7429 37.1998 41.0952C37.5237 40.4475 37.9863 40.1237 38.5878 40.1237C39.4205 40.1237 39.8369 40.6094 39.8369 41.581C39.8369 42.5526 39.6981 43.4316 39.4205 44.2181C39.1429 44.9815 38.7728 45.6755 38.3102 46.3001C38.9579 47.5029 39.8601 48.1044 41.0167 48.1044C41.8957 48.1044 42.8326 47.7343 43.8273 46.994C44.8451 46.2538 45.8398 45.1781 46.8114 43.767C47.0427 43.4201 47.2509 43.0615 47.436 42.6914C47.621 42.3213 47.8061 41.9511 47.9911 41.581L48.6504 41.7545L48.6504 41.7545ZM53.47 26.2441C53.47 24.9256 53.2503 23.873 52.8108 23.0865C52.3944 22.2769 51.6888 21.8721 50.6941 21.8721C50.3471 21.8721 50.0233 21.9877 49.7226 22.219C49.445 22.4272 49.2021 22.7164 48.9939 23.0865C48.7857 23.4566 48.6238 23.8846 48.5081 24.3704C48.3924 24.8562 48.3346 25.3766 48.3346 25.9318C48.3346 27.4586 48.3462 28.8465 48.3693 30.0957C48.3924 31.3448 48.4156 32.5246 48.4387 33.635C48.485 34.7453 48.5312 35.821 48.5775 36.862C48.6238 37.9029 48.67 38.967 48.7163 40.0543C49.3871 39.1521 50.0117 38.1227 50.59 36.9661C51.1684 35.7863 51.6657 34.5834 52.0821 33.3574C52.5216 32.1082 52.857 30.8706 53.0884 29.6446C53.3428 28.4186 53.47 27.2851 53.47 26.2441ZM66.031 41.7545C65.8691 42.1015 65.6956 42.46 65.5106 42.8302C65.3486 43.2003 65.1404 43.5473 64.886 43.8711C63.6137 45.6755 62.1679 47.0981 60.5486 48.1391C58.9293 49.1569 57.3216 49.6658 55.7255 49.6658C54.7308 49.6658 53.7823 49.4345 52.8802 48.9719C51.978 48.5323 51.1799 47.8152 50.4859 46.8205C50.3934 46.7049 50.3471 46.6008 50.3471 46.5082C50.3471 46.3001 50.4859 46.196 50.7635 46.196C50.7867 46.196 50.8676 46.2191 51.0064 46.2654C51.1915 46.2654 51.3997 46.3348 51.631 46.4735C51.8855 46.5892 52.244 46.647 52.7067 46.647C53.4238 46.647 54.0946 46.5198 54.7192 46.2654C55.3438 46.0109 55.8758 45.687 56.3154 45.2938C56.778 44.8774 57.1366 44.4147 57.391 43.9058C57.6455 43.3738 57.7727 42.8302 57.7727 42.275C57.7727 41.581 57.5876 40.9796 57.2175 40.4706C56.8705 39.9617 56.2691 39.7073 55.4132 39.7073C54.5341 39.7073 53.7245 40.0196 52.9843 40.6441C52.244 41.2456 51.5732 41.9858 50.9717 42.8649C50.3934 43.7208 49.8961 44.6345 49.4797 45.6061C49.0633 46.5545 48.751 47.3873 48.5428 48.1044C48.4271 48.4977 48.323 48.7405 48.2305 48.8331C48.138 48.9256 48.0339 48.9719 47.9182 48.9719C47.6638 48.9719 47.5481 48.729 47.5712 48.2432C47.5712 48.035 47.5828 47.7805 47.6059 47.4798C47.6291 47.1791 47.6522 46.8552 47.6753 46.5082C47.6753 46.1613 47.6869 45.8143 47.71 45.4673C47.7332 45.0972 47.7447 44.7617 47.7447 44.461C47.7447 43.4201 47.7216 42.2287 47.6753 40.887C47.6291 39.5222 47.5712 38.1227 47.5018 36.6885C47.4324 35.2311 47.3746 33.7853 47.3283 32.3511C47.2821 30.9169 47.2589 29.5983 47.2589 28.3954C47.2589 27.447 47.3283 26.5333 47.4671 25.6542C47.6059 24.7521 47.8257 23.9656 48.1264 23.2947C48.4271 22.6007 48.8088 22.0571 49.2715 21.6639C49.7341 21.2475 50.2778 21.0393 50.9023 21.0393C51.55 21.0393 52.0937 21.1549 52.5332 21.3863C52.9958 21.5945 53.366 21.9068 53.6435 22.3231C53.9211 22.7164 54.1178 23.2022 54.2334 23.7805C54.3722 24.3357 54.4416 24.9487 54.4416 25.6195C54.4416 26.7762 54.2797 28.0485 53.9558 29.4364C53.632 30.8012 53.204 32.1776 52.672 33.5656C52.1399 34.9535 51.5269 36.2952 50.8329 37.5906C50.1621 38.8629 49.4681 39.9733 48.751 40.9217C48.7973 41.6157 48.8204 42.3328 48.8204 43.0731C48.8435 43.8133 48.8782 44.5998 48.9245 45.4326C49.5028 44.1834 50.139 43.1078 50.8329 42.2056C51.1337 41.8123 51.4691 41.4306 51.8392 41.0605C52.2325 40.6673 52.6373 40.3203 53.0537 40.0196C53.4932 39.7188 53.9558 39.4759 54.4416 39.2909C54.9505 39.1058 55.4826 39.0133 56.0378 39.0133C56.9168 39.0133 57.6802 39.2331 58.3279 39.6726C58.9756 40.1121 59.2995 40.8176 59.2995 41.7892C59.2995 42.7145 59.0681 43.501 58.6055 44.1487C58.166 44.7964 57.6108 45.3401 56.9399 45.7796C56.2691 46.196 55.552 46.5082 54.7886 46.7164C54.0252 46.9246 53.3312 47.0519 52.7067 47.0981C52.6604 47.0981 52.6373 47.1097 52.6373 47.1328C52.6373 47.1791 52.672 47.2485 52.7414 47.341C53.204 47.8731 53.7245 48.2548 54.3028 48.4861C54.8811 48.7174 55.4826 48.8331 56.1072 48.8331C56.8705 48.8331 57.6455 48.6943 58.432 48.4167C59.2185 48.116 59.9703 47.7343 60.6874 47.2716C61.4045 46.7858 62.0638 46.2422 62.6652 45.6408C63.2898 45.0162 63.7987 44.3916 64.192 43.767C64.4233 43.4201 64.6315 43.0615 64.8166 42.6914C65.0016 42.3213 65.1867 41.9511 65.3718 41.581L66.031 41.7545L66.031 41.7545ZM70.9228 39.6032C70.9228 38.9786 70.7608 38.4697 70.437 38.0764C70.1362 37.66 69.6389 37.4518 68.9449 37.4518C68.5748 37.4518 68.2394 37.5675 67.9387 37.7988C67.6379 38.0302 67.3835 38.3424 67.1753 38.7357C66.9671 39.1058 66.8052 39.5453 66.6895 40.0543C66.5738 40.5632 66.516 41.0952 66.516 41.6504C66.516 42.5294 66.6085 43.316 66.7936 44.0099C67.0018 44.6808 67.2909 45.2707 67.6611 45.7796C68.1469 45.3863 68.5864 44.9352 68.9796 44.4263C69.3729 43.9174 69.7083 43.3854 69.9859 42.8302C70.2866 42.275 70.5179 41.7198 70.6799 41.1646C70.8418 40.6094 70.9228 40.089 70.9228 39.6032ZM79.7016 41.7545C79.5396 42.1015 79.3661 42.46 79.1811 42.8302C79.0192 43.1772 78.811 43.5241 78.5565 43.8711C77.423 45.4904 76.1276 46.7164 74.6702 47.5492C73.236 48.3589 71.8596 48.7637 70.5411 48.7637C69.8008 48.7637 69.1068 48.6364 68.4591 48.382C67.8346 48.1275 67.2909 47.7458 66.8283 47.2369C66.3656 46.728 65.9955 46.0919 65.7179 45.3285C65.4403 44.5651 65.3015 43.6629 65.3015 42.622C65.3015 41.928 65.4056 41.234 65.6138 40.54C65.822 39.8461 66.0996 39.2215 66.4466 38.6663C66.8167 38.1111 67.2331 37.66 67.6958 37.313C68.1815 36.9661 68.6905 36.7926 69.2225 36.7926C70.0784 36.7926 70.703 37.047 71.0963 37.5559C71.4895 38.0417 71.6861 38.6663 71.6861 39.4297C71.6861 40.4706 71.3623 41.6041 70.7146 42.8302C70.09 44.0331 69.1878 45.155 68.008 46.196C68.8871 47.1907 70.0206 47.688 71.4085 47.688C72.4495 47.688 73.5367 47.3757 74.6702 46.7511C75.8037 46.1034 76.8678 45.1087 77.8625 43.767C78.117 43.4432 78.3252 43.0962 78.4871 42.7261C78.6722 42.3328 78.8572 41.9511 79.0423 41.581L79.7016 41.7545L79.7016 41.7545ZM109.763 33.0104C108.907 33.0104 108.086 33.1029 107.3 33.288C106.536 33.473 105.854 33.6928 105.252 33.9473C104.674 34.2017 104.2 34.4677 103.83 34.7453C103.483 35.0229 103.309 35.2658 103.309 35.474C103.309 35.7516 103.633 35.8904 104.281 35.8904C105.391 35.8904 106.444 35.6244 107.438 35.0923C108.456 34.5603 109.37 33.8663 110.18 33.0104L109.763 33.0104L109.763 33.0104ZM119.861 38.2152C119.861 39.3487 119.537 40.5747 118.889 41.8933C118.264 43.2119 117.397 44.5188 116.287 45.8143C115.176 47.1097 113.858 48.3589 112.331 49.5617C110.804 50.7646 109.162 51.8287 107.404 52.754C105.646 53.6793 103.795 54.408 101.852 54.9401C99.9088 55.4953 97.9656 55.7728 96.0225 55.7728C95.6987 55.7728 95.3401 55.7613 94.9468 55.7381C94.5767 55.715 94.2297 55.6572 93.9059 55.5647C93.582 55.4953 93.3044 55.368 93.0731 55.183C92.8418 55.021 92.7261 54.7897 92.7261 54.489C92.7261 54.0726 92.9343 53.6678 93.3507 53.2745C93.7671 52.9044 94.2991 52.5574 94.9468 52.2336C95.5946 51.9097 96.3001 51.6205 97.0635 51.3661C97.8269 51.1116 98.5555 50.8919 99.2495 50.7068C99.9666 50.5218 100.591 50.3714 101.123 50.2557C101.655 50.1632 102.014 50.1169 102.199 50.1169C102.338 50.1169 102.442 50.1516 102.511 50.221C102.581 50.2904 102.615 50.3598 102.615 50.4292C102.615 50.5449 102.557 50.6027 102.442 50.6027L101.991 50.6027C101.389 50.6027 100.626 50.7184 99.7006 50.9497C98.7753 51.181 97.8731 51.4702 96.9941 51.8172C96.115 52.1642 95.3632 52.5458 94.7386 52.9622C94.1141 53.4018 93.8018 53.8066 93.8018 54.1767C93.8018 54.4312 93.8827 54.6278 94.0447 54.7666C94.2297 54.9285 94.4495 55.0557 94.7039 55.1483C94.9584 55.2408 95.2244 55.2986 95.502 55.3218C95.7796 55.368 96.0225 55.3912 96.2307 55.3912C97.8731 55.3912 99.5502 55.1136 101.262 54.5584C102.997 54.0032 104.674 53.263 106.293 52.3377C107.936 51.4355 109.474 50.383 110.908 49.1801C112.366 48.0003 113.638 46.7743 114.725 45.502C115.812 44.2066 116.668 42.9227 117.293 41.6504C117.917 40.355 118.23 39.1521 118.23 38.0417C118.23 36.6769 117.663 35.5434 116.53 34.6412C115.419 33.7159 113.58 33.1839 111.012 33.0451C109.971 34.0167 108.826 34.8032 107.577 35.4046C106.351 36.0061 105.102 36.3068 103.83 36.3068C102.928 36.3068 102.476 36.087 102.476 35.6475C102.476 35.3699 102.662 35.0576 103.032 34.7106C103.425 34.3405 103.957 33.9935 104.628 33.6697C105.322 33.3458 106.143 33.0798 107.091 32.8716C108.04 32.6403 109.081 32.5246 110.214 32.5246L110.631 32.5246C111.394 31.6224 112.007 30.6393 112.47 29.5752C112.932 28.488 113.164 27.4239 113.164 26.3829C113.164 25.6889 113.037 25.0297 112.782 24.4051C112.551 23.7574 112.157 23.2022 111.602 22.7395C111.07 22.2769 110.365 21.9068 109.486 21.6292C108.63 21.3516 107.589 21.2128 106.363 21.2128C105.53 21.2128 104.373 21.3284 102.893 21.5598C101.436 21.7911 99.851 22.1496 98.1391 22.6354C96.4505 23.0981 94.7271 23.688 92.969 24.4051C91.2109 25.1222 89.6148 25.955 88.1806 26.9034C86.7463 27.8518 85.5781 28.9275 84.676 30.1304C83.7738 31.3333 83.3227 32.6634 83.3227 34.1208C83.3227 34.3058 83.288 34.4677 83.2186 34.6065C83.1492 34.7222 83.0798 34.78 83.0104 34.78C82.9179 34.78 82.8485 34.6875 82.8022 34.5024C82.7328 34.2943 82.6981 33.9588 82.6981 33.4962C82.9063 31.9926 83.5193 30.6277 84.5372 29.4017C85.555 28.1757 86.8157 27.0885 88.3194 26.14C89.7998 25.1684 91.4307 24.3357 93.2119 23.6417C94.9931 22.9477 96.7512 22.381 98.4861 21.9415C100.244 21.4788 101.875 21.1434 103.379 20.9352C104.905 20.7039 106.155 20.5882 107.126 20.5882C108.537 20.5882 109.729 20.727 110.7 21.0046C111.695 21.259 112.504 21.6176 113.129 22.0802C113.754 22.5198 114.205 23.0518 114.482 23.6764C114.76 24.301 114.899 24.9603 114.899 25.6542C114.899 26.7877 114.586 27.9675 113.962 29.1935C113.36 30.3964 112.539 31.5183 111.498 32.5593C112.979 32.6287 114.251 32.8253 115.315 33.1492C116.379 33.4499 117.247 33.8547 117.917 34.3636C118.588 34.8494 119.074 35.4277 119.375 36.0986C119.699 36.7463 119.861 37.4518 119.861 38.2152ZM101.47 47.341C101.47 47.6649 101.447 47.8962 101.401 48.035C101.355 48.1738 101.227 48.2432 101.019 48.2432C100.556 48.2895 100.325 47.8268 100.325 46.8552C100.302 43.6629 100.267 40.7482 100.221 38.1111C100.198 35.474 100.163 33.1954 100.117 31.2754C100.094 29.3323 100.071 27.794 100.048 26.6605C100.024 25.527 100.013 24.8793 100.013 24.7174C100.013 24.5323 100.071 24.4051 100.186 24.3357C100.302 24.2663 100.441 24.2084 100.603 24.1622C100.788 24.1622 100.927 24.22 101.019 24.3357C101.135 24.4513 101.193 24.5901 101.193 24.7521C101.193 26.6027 101.204 28.5111 101.227 30.4774C101.25 32.4205 101.274 34.3636 101.297 36.3068C101.343 38.2499 101.378 40.1584 101.401 42.0321C101.447 43.9058 101.47 45.6755 101.47 47.341ZM133.348 41.7892C133.348 41.4422 133.29 41.1646 133.175 40.9564C133.059 40.7251 132.874 40.6094 132.62 40.6094C132.226 40.6094 131.926 40.8061 131.717 41.1993C131.509 41.5694 131.417 42.0437 131.44 42.622C131.509 43.848 131.729 44.8774 132.099 45.7102C132.492 45.1781 132.793 44.5767 133.001 43.9058C133.233 43.235 133.348 42.5294 133.348 41.7892ZM142.717 41.7545C142.555 42.1015 142.381 42.46 142.196 42.8302C142.011 43.1772 141.803 43.5241 141.572 43.8711C140.392 45.6292 139.201 46.9362 137.998 47.7921C136.795 48.648 135.673 49.076 134.632 49.076C133.313 49.076 132.307 48.4514 131.613 47.2022C130.804 48.0119 129.89 48.6249 128.872 49.0413C127.877 49.4576 126.894 49.6658 125.923 49.6658C125.344 49.6658 124.789 49.5849 124.257 49.423C123.748 49.261 123.309 49.0181 122.939 48.6943C122.545 48.3473 122.233 47.9193 122.002 47.4104C121.77 46.8784 121.655 46.2654 121.655 45.5714C121.655 44.7386 121.851 43.8943 122.245 43.0384C122.615 42.1593 123.135 41.3728 123.806 40.6788C124.5 39.9617 125.31 39.3718 126.235 38.9092C127.16 38.4465 128.166 38.2152 129.254 38.2152C130.133 38.2152 130.815 38.3424 131.301 38.5969C131.787 38.8282 132.03 39.048 132.03 39.2562C132.03 39.3487 131.983 39.4181 131.891 39.4644C131.798 39.5106 131.717 39.5338 131.648 39.5338C131.625 39.5106 131.602 39.4991 131.579 39.4991L131.544 39.4991C131.266 39.2446 130.954 39.048 130.607 38.9092C130.26 38.7473 129.751 38.6663 129.08 38.6663C128.178 38.6663 127.357 38.8629 126.617 39.2562C125.899 39.6263 125.286 40.1237 124.778 40.7482C124.269 41.3497 123.875 42.0205 123.598 42.7608C123.32 43.501 123.181 44.2297 123.181 44.9468C123.181 46.3348 123.505 47.341 124.153 47.9656C124.801 48.5902 125.61 48.9025 126.582 48.9025C127.368 48.9025 128.19 48.7058 129.046 48.3126C129.901 47.9193 130.665 47.3642 131.336 46.647C130.966 45.8143 130.78 44.727 130.78 43.3854C130.78 42.5063 130.942 41.7429 131.266 41.0952C131.59 40.4475 132.053 40.1237 132.654 40.1237C133.487 40.1237 133.903 40.6094 133.903 41.581C133.903 42.5526 133.765 43.4316 133.487 44.2181C133.209 44.9815 132.839 45.6755 132.377 46.3001C133.024 47.5029 133.926 48.1044 135.083 48.1044C135.962 48.1044 136.899 47.7343 137.894 46.994C138.912 46.2538 139.906 45.1781 140.878 43.767C141.109 43.4201 141.317 43.0615 141.502 42.6914C141.687 42.3213 141.873 41.9511 142.058 41.581L142.717 41.7545L142.717 41.7545ZM147.536 26.2441C147.536 24.9256 147.317 23.873 146.877 23.0865C146.461 22.2769 145.755 21.8721 144.761 21.8721C144.414 21.8721 144.09 21.9877 143.789 22.219C143.511 22.4272 143.269 22.7164 143.06 23.0865C142.852 23.4566 142.69 23.8846 142.575 24.3704C142.459 24.8562 142.401 25.3766 142.401 25.9318C142.401 27.4586 142.413 28.8465 142.436 30.0957C142.459 31.3448 142.482 32.5246 142.505 33.635C142.551 34.7453 142.598 35.821 142.644 36.862C142.69 37.9029 142.736 38.967 142.783 40.0543C143.454 39.1521 144.078 38.1227 144.656 36.9661C145.235 35.7863 145.732 34.5834 146.149 33.3574C146.588 32.1082 146.923 30.8706 147.155 29.6446C147.409 28.4186 147.536 27.2851 147.536 26.2441ZM160.097 41.7545C159.936 42.1015 159.762 42.46 159.577 42.8302C159.415 43.2003 159.207 43.5473 158.952 43.8711C157.68 45.6755 156.234 47.0981 154.615 48.1391C152.996 49.1569 151.388 49.6658 149.792 49.6658C148.797 49.6658 147.849 49.4345 146.947 48.9719C146.044 48.5323 145.246 47.8152 144.552 46.8205C144.46 46.7049 144.414 46.6008 144.414 46.5082C144.414 46.3001 144.552 46.196 144.83 46.196C144.853 46.196 144.934 46.2191 145.073 46.2654C145.258 46.2654 145.466 46.3348 145.697 46.4735C145.952 46.5892 146.31 46.647 146.773 46.647C147.49 46.647 148.161 46.5198 148.786 46.2654C149.41 46.0109 149.942 45.687 150.382 45.2938C150.844 44.8774 151.203 44.4147 151.457 43.9058C151.712 43.3738 151.839 42.8302 151.839 42.275C151.839 41.581 151.654 40.9796 151.284 40.4706C150.937 39.9617 150.336 39.7073 149.48 39.7073C148.601 39.7073 147.791 40.0196 147.051 40.6441C146.31 41.2456 145.64 41.9858 145.038 42.8649C144.46 43.7208 143.963 44.6345 143.546 45.6061C143.13 46.5545 142.817 47.3873 142.609 48.1044C142.494 48.4977 142.389 48.7405 142.297 48.8331C142.204 48.9256 142.1 48.9719 141.985 48.9719C141.73 48.9719 141.615 48.729 141.638 48.2432C141.638 48.035 141.649 47.7805 141.672 47.4798C141.696 47.1791 141.719 46.8552 141.742 46.5082C141.742 46.1613 141.753 45.8143 141.776 45.4673C141.8 45.0972 141.811 44.7617 141.811 44.461C141.811 43.4201 141.788 42.2287 141.742 40.887C141.696 39.5222 141.638 38.1227 141.568 36.6885C141.499 35.2311 141.441 33.7853 141.395 32.3511C141.349 30.9169 141.325 29.5983 141.325 28.3954C141.325 27.447 141.395 26.5333 141.534 25.6542C141.672 24.7521 141.892 23.9656 142.193 23.2947C142.494 22.6007 142.875 22.0571 143.338 21.6639C143.801 21.2475 144.344 21.0393 144.969 21.0393C145.616 21.0393 146.16 21.1549 146.6 21.3863C147.062 21.5945 147.432 21.9068 147.71 22.3231C147.988 22.7164 148.184 23.2022 148.3 23.7805C148.439 24.3357 148.508 24.9487 148.508 25.6195C148.508 26.7762 148.346 28.0485 148.022 29.4364C147.698 30.8012 147.27 32.1776 146.738 33.5656C146.206 34.9535 145.593 36.2952 144.899 37.5906C144.229 38.8629 143.535 39.9733 142.817 40.9217C142.864 41.6157 142.887 42.3328 142.887 43.0731C142.91 43.8133 142.945 44.5998 142.991 45.4326C143.569 44.1834 144.205 43.1078 144.899 42.2056C145.2 41.8123 145.536 41.4306 145.906 41.0605C146.299 40.6673 146.704 40.3203 147.12 40.0196C147.56 39.7188 148.022 39.4759 148.508 39.2909C149.017 39.1058 149.549 39.0133 150.104 39.0133C150.983 39.0133 151.747 39.2331 152.394 39.6726C153.042 40.1121 153.366 40.8176 153.366 41.7892C153.366 42.7145 153.135 43.501 152.672 44.1487C152.232 44.7964 151.677 45.3401 151.006 45.7796C150.336 46.196 149.618 46.5082 148.855 46.7164C148.092 46.9246 147.398 47.0519 146.773 47.0981C146.727 47.0981 146.704 47.1097 146.704 47.1328C146.704 47.1791 146.738 47.2485 146.808 47.341C147.27 47.8731 147.791 48.2548 148.369 48.4861C148.948 48.7174 149.549 48.8331 150.174 48.8331C150.937 48.8331 151.712 48.6943 152.498 48.4167C153.285 48.116 154.037 47.7343 154.754 47.2716C155.471 46.7858 156.13 46.2422 156.732 45.6408C157.356 45.0162 157.865 44.3916 158.258 43.767C158.49 43.4201 158.698 43.0615 158.883 42.6914C159.068 42.3213 159.253 41.9511 159.438 41.581L160.097 41.7545L160.097 41.7545ZM164.989 39.6032C164.989 38.9786 164.827 38.4697 164.503 38.0764C164.203 37.66 163.705 37.4518 163.011 37.4518C162.641 37.4518 162.306 37.5675 162.005 37.7988C161.704 38.0302 161.45 38.3424 161.242 38.7357C161.034 39.1058 160.872 39.5453 160.756 40.0543C160.64 40.5632 160.582 41.0952 160.582 41.6504C160.582 42.5294 160.675 43.316 160.86 44.0099C161.068 44.6808 161.357 45.2707 161.728 45.7796C162.213 45.3863 162.653 44.9352 163.046 44.4263C163.439 43.9174 163.775 43.3854 164.052 42.8302C164.353 42.275 164.584 41.7198 164.746 41.1646C164.908 40.6094 164.989 40.089 164.989 39.6032ZM173.768 41.7545C173.606 42.1015 173.433 42.46 173.248 42.8302C173.086 43.1772 172.877 43.5241 172.623 43.8711C171.489 45.4904 170.194 46.7164 168.737 47.5492C167.302 48.3589 165.926 48.7637 164.608 48.7637C163.867 48.7637 163.173 48.6364 162.526 48.382C161.901 48.1275 161.357 47.7458 160.895 47.2369C160.432 46.728 160.062 46.0919 159.784 45.3285C159.507 44.5651 159.368 43.6629 159.368 42.622C159.368 41.928 159.472 41.234 159.68 40.54C159.888 39.8461 160.166 39.2215 160.513 38.6663C160.883 38.1111 161.3 37.66 161.762 37.313C162.248 36.9661 162.757 36.7926 163.289 36.7926C164.145 36.7926 164.769 37.047 165.163 37.5559C165.556 38.0417 165.753 38.6663 165.753 39.4297C165.753 40.4706 165.429 41.6041 164.781 42.8302C164.156 44.0331 163.254 45.155 162.075 46.196C162.954 47.1907 164.087 47.688 165.475 47.688C166.516 47.688 167.603 47.3757 168.737 46.7511C169.87 46.1034 170.934 45.1087 171.929 43.767C172.183 43.4432 172.392 43.0962 172.554 42.7261C172.739 42.3328 172.924 41.9511 173.109 41.581L173.768 41.7545L173.768 41.7545Z" fill="#1F1711" fill-opacity="1.000000" fill-rule="evenodd"/>
</svg>
