<svg width="19.500000" height="19.500000" viewBox="0 0 19.5 19.5" fill="none" xmlns="http://www.w3.org/2000/svg" xmlns:xlink="http://www.w3.org/1999/xlink">
	<desc>
			Created with Pixso.
	</desc>
	<defs/>
	<path id="Vector" d="M9.75 0C7.82178 0 5.93652 0.572266 4.33301 1.64355C2.72998 2.71484 1.47998 4.2373 0.742188 6.01855C0.00439453 7.80078 -0.188965 9.76074 0.1875 11.6523C0.563477 13.543 1.49219 15.2803 2.85596 16.6445C4.21924 18.0078 5.95654 18.9365 7.84766 19.3125C9.73926 19.6885 11.6997 19.4961 13.481 18.7578C15.2627 18.0195 16.7856 16.7705 17.8569 15.167C18.9282 13.5635 19.5 11.6787 19.5 9.75C19.4971 7.16504 18.4692 4.68652 16.6411 2.8584C14.8135 1.03125 12.335 0.00292969 9.75 0ZM9.75 18C8.11816 18 6.52344 17.5166 5.1665 16.6094C3.81006 15.7031 2.75244 14.415 2.12793 12.9072C1.50342 11.3994 1.34033 9.74121 1.65869 8.14062C1.97705 6.54004 2.7627 5.07031 3.9165 3.91602C5.07031 2.7627 6.54004 1.97656 8.14062 1.6582C9.74072 1.33984 11.3994 1.50391 12.9072 2.12793C14.4146 2.75195 15.7031 3.80957 16.6099 5.16699C17.5161 6.52344 18 8.11816 18 9.75C17.9976 11.9375 17.1274 14.0342 15.5811 15.5811C14.0342 17.1279 11.9375 17.9971 9.75 18ZM15.75 9.75C15.75 9.94922 15.6709 10.1396 15.5303 10.2803C15.3896 10.4209 15.1987 10.5 15 10.5L9.75 10.5C9.55127 10.5 9.36035 10.4209 9.21973 10.2803C9.0791 10.1396 9 9.94922 9 9.75L9 4.5C9 4.30078 9.0791 4.11035 9.21973 3.96973C9.36035 3.8291 9.55127 3.75 9.75 3.75C9.94873 3.75 10.1396 3.8291 10.2803 3.96973C10.4209 4.11035 10.5 4.30078 10.5 4.5L10.5 9L15 9C15.1987 9 15.3896 9.0791 15.5303 9.21973C15.6709 9.36035 15.75 9.55078 15.75 9.75Z" fill="#FFF9F4" fill-opacity="1.000000" fill-rule="nonzero"/>
</svg>
